<?xml version="1.0" encoding="UTF-8"?>
<!DOCTYPE svg PUBLIC "-//W3C//DTD SVG 1.1//EN" "http://www.w3.org/Graphics/SVG/1.1/DTD/svg11.dtd">
<!-- Creator: CorelDRAW -->
<svg xmlns="http://www.w3.org/2000/svg" xml:space="preserve" width="594mm" height="200mm" style="shape-rendering:geometricPrecision; text-rendering:geometricPrecision; image-rendering:optimizeQuality; fill-rule:evenodd; clip-rule:evenodd"
viewBox="0 0 594 200"
 xmlns:xlink="http://www.w3.org/1999/xlink">
 <defs>
  <style type="text/css">
   <![CDATA[
    .str2 {stroke:#0D4DA1}
    .str1 {stroke:#EE1D23}
    .str0 {stroke:#FEFEFE;stroke-opacity:0.301961}
    .fil5 {fill:white}
    .fil3 {fill:#0D4DA1}
    .fil4 {fill:#EE1D23}
    .fil2 {fill:#0D4DA1;fill-rule:nonzero}
    .fil1 {fill:#FEFEFE;fill-opacity:0.301961}
    .fil0 {fill:#FEFEFE;fill-rule:nonzero;fill-opacity:0.301961}
   ]]>
  </style>
 </defs>
 <g id="текст">
  <metadata id="CorelCorpID_0Corel-Layer"/>
  <path class="fil0" d="M208.51 71.4861l-3.3482 0 -6.9664 -9.0433 -1.6608 0 0 9.0433 -2.6249 0 0 -19.7432 2.6249 0 0 8.8991c1.0323,-0.0371 1.8565,-0.2947 2.4582,-0.783 0.6057,-0.4842 1.1002,-1.1868 1.4793,-2.0954 0.1587,-0.3998 0.303,-0.7748 0.4307,-1.1313 0.1257,-0.3585 0.2308,-0.6614 0.3112,-0.9106 0.5295,-1.5124 1.2094,-2.5529 2.0274,-3.1237 0.8242,-0.5687 1.9657,-0.8551 3.4224,-0.8551l0.8098 0 0 2.349 -0.6593 0c-1.0818,0 -1.838,0.2081 -2.2687,0.6305 -0.4347,0.4202 -0.8323,1.2114 -1.195,2.3797 -0.3626,1.1683 -0.7685,2.0234 -1.2218,2.5674 -0.4471,0.5418 -0.9911,1.0219 -1.6299,1.434l8.0111 10.3826zm38.5426 -17.4746c0.7501,0.8633 1.3311,1.9409 1.7474,3.2225 0.4161,1.2795 0.6242,2.7425 0.6242,4.3847 0,1.603 -0.204,3.0473 -0.6119,4.3372 -0.4059,1.294 -0.9952,2.3757 -1.7597,3.2493 -0.8055,0.9189 -1.7472,1.5969 -2.8206,2.0358 -1.0716,0.4387 -2.2584,0.6572 -3.5482,0.6572 -1.3351,0 -2.5384,-0.2267 -3.6078,-0.6737 -1.0673,-0.4534 -1.9863,-1.123 -2.7549,-2.0193 -0.7602,-0.8736 -1.3454,-1.9513 -1.7513,-3.237 -0.408,-1.2795 -0.6119,-2.728 -0.6119,-4.3495 0,-1.6608 0.2039,-3.1175 0.616,-4.3724 0.4121,-1.2568 0.9993,-2.3344 1.7596,-3.2348 0.7562,-0.8778 1.6752,-1.5433 2.7528,-1.9966 1.0714,-0.4574 2.2727,-0.6841 3.5975,-0.6841 1.3455,0 2.557,0.235 3.6346,0.7027 1.0777,0.4697 1.9863,1.127 2.7342,1.978zm-0.3626 7.6072c0,-1.3085 -0.1401,-2.4623 -0.4244,-3.472 -0.2823,-1.0075 -0.68,-1.8419 -1.191,-2.5074 -0.5254,-0.678 -1.1538,-1.189 -1.8915,-1.5289 -0.7376,-0.34 -1.5659,-0.511 -2.4848,-0.511 -0.9561,0 -1.7885,0.1668 -2.4993,0.4965 -0.7109,0.3318 -1.3435,0.8469 -1.8916,1.5434 -0.5213,0.6758 -0.9189,1.5164 -1.1991,2.5364 -0.2762,1.0136 -0.4162,2.1634 -0.4162,3.443 0,2.594 0.5418,4.5761 1.6298,5.9484 1.0899,1.3744 2.5467,2.0625 4.3764,2.0625 1.8276,0 3.2843,-0.6881 4.3681,-2.0625 1.0818,-1.3723 1.6236,-3.3544 1.6236,-5.9484zm40.8916 -3.9232c0,0.8593 -0.1545,1.669 -0.4574,2.4355 -0.307,0.7644 -0.7294,1.4156 -1.2672,1.9554 -0.6841,0.6696 -1.4794,1.1806 -2.4045,1.5247 -0.919,0.344 -2.081,0.5151 -3.4884,0.5151l-2.2273 0 0 7.3599 -2.625 0 0 -19.7432 4.9595 0c1.1683,0 2.1635,0.0948 2.9876,0.2906 0.82,0.1936 1.5495,0.5109 2.1738,0.9415 0.7336,0.507 1.3084,1.1437 1.7246,1.9184 0.4162,0.7747 0.6243,1.7059 0.6243,2.8021zm-2.7342 0.0681c0,-0.68 -0.1175,-1.2734 -0.3523,-1.7803 -0.2308,-0.5007 -0.5894,-0.9128 -1.0694,-1.2301 -0.4121,-0.2761 -0.8963,-0.4718 -1.4526,-0.5831 -0.5522,-0.1133 -1.2404,-0.1731 -2.0584,-0.1731l-2.1779 0 0 7.8895 1.7926 0c1.0591,0 1.9183,-0.0865 2.5714,-0.2575 0.6553,-0.1732 1.1992,-0.4802 1.6339,-0.9231 0.3875,-0.3997 0.6697,-0.8283 0.8448,-1.3002 0.1772,-0.4656 0.2679,-1.0137 0.2679,-1.6421zm42.3895 13.7225l-2.625 0 0 -17.4067 -9.0886 0 0 17.4067 -2.625 0 0 -19.7432 14.3386 0 0 19.7432zm40.7824 -17.4746c0.7501,0.8633 1.331,1.9409 1.7473,3.2225 0.4162,1.2795 0.6243,2.7425 0.6243,4.3847 0,1.603 -0.204,3.0473 -0.612,4.3372 -0.4059,1.294 -0.9952,2.3757 -1.7596,3.2493 -0.8056,0.9189 -1.7472,1.5969 -2.8207,2.0358 -1.0715,0.4387 -2.2583,0.6572 -3.5481,0.6572 -1.3351,0 -2.5385,-0.2267 -3.6078,-0.6737 -1.0674,-0.4534 -1.9863,-1.123 -2.7549,-2.0193 -0.7603,-0.8736 -1.3454,-1.9513 -1.7513,-3.237 -0.4081,-1.2795 -0.612,-2.728 -0.612,-4.3495 0,-1.6608 0.2039,-3.1175 0.6161,-4.3724 0.4121,-1.2568 0.9993,-2.3344 1.7596,-3.2348 0.7562,-0.8778 1.6751,-1.5433 2.7527,-1.9966 1.0715,-0.4574 2.2727,-0.6841 3.5976,-0.6841 1.3455,0 2.557,0.235 3.6346,0.7027 1.0776,0.4697 1.9863,1.127 2.7342,1.978zm-0.3626 7.6072c0,-1.3085 -0.1402,-2.4623 -0.4244,-3.472 -0.2824,-1.0075 -0.68,-1.8419 -1.191,-2.5074 -0.5254,-0.678 -1.1539,-1.189 -1.8915,-1.5289 -0.7376,-0.34 -1.5659,-0.511 -2.4849,-0.511 -0.9561,0 -1.7884,0.1668 -2.4993,0.4965 -0.7108,0.3318 -1.3435,0.8469 -1.8915,1.5434 -0.5213,0.6758 -0.919,1.5164 -1.1992,2.5364 -0.2761,1.0136 -0.4162,2.1634 -0.4162,3.443 0,2.594 0.5419,4.5761 1.6298,5.9484 1.09,1.3744 2.5467,2.0625 4.3764,2.0625 1.8276,0 3.2844,-0.6881 4.3681,-2.0625 1.0818,-1.3723 1.6237,-3.3544 1.6237,-5.9484zm40.8915 -3.9232c0,0.8593 -0.1545,1.669 -0.4574,2.4355 -0.307,0.7644 -0.7294,1.4156 -1.2672,1.9554 -0.684,0.6696 -1.4793,1.1806 -2.4045,1.5247 -0.9189,0.344 -2.081,0.5151 -3.4883,0.5151l-2.2274 0 0 7.3599 -2.6249 0 0 -19.7432 4.9594 0c1.1683,0 2.1635,0.0948 2.9877,0.2906 0.82,0.1936 1.5495,0.5109 2.1738,0.9415 0.7335,0.507 1.3083,1.1437 1.7246,1.9184 0.4162,0.7747 0.6242,1.7059 0.6242,2.8021zm-2.7342 0.0681c0,-0.68 -0.1174,-1.2734 -0.3523,-1.7803 -0.2308,-0.5007 -0.5893,-0.9128 -1.0694,-1.2301 -0.4121,-0.2761 -0.8963,-0.4718 -1.4525,-0.5831 -0.5523,-0.1133 -1.2404,-0.1731 -2.0584,-0.1731l-2.178 0 0 7.8895 1.7927 0c1.0591,0 1.9182,-0.0865 2.5714,-0.2575 0.6552,-0.1732 1.1992,-0.4802 1.6339,-0.9231 0.3873,-0.3997 0.6697,-0.8283 0.8448,-1.3002 0.1772,-0.4656 0.2678,-1.0137 0.2678,-1.6421zm25.9184 13.7225l6.6594 -19.7432 3.2307 0 6.6574 19.7432 -2.7693 0 -1.7926 -5.5179 -7.5454 0 -1.7864 5.5179 -2.6538 0zm11.2624 -7.7576l-3.0557 -9.305 -3.0371 9.305 6.0928 0zm46.0407 12.2247l-2.4933 0 0 -4.4671 -13.5783 0 0 -19.7432 2.625 0 0 17.4355 8.9527 0 0 -17.4355 2.625 0 0 17.4355 1.8689 0 0 6.7748zm39.5377 -4.4671l-2.6125 0 0 -15.6738 -8.93 15.6738 -2.6518 0 0 -19.7432 2.6105 0 0 15.4204 8.8126 -15.4204 2.7712 0 0 19.7432zm39.4143 0l-2.6249 0 0 -7.8482 -2.9856 0 -5.8991 7.8482 -3.1587 0 6.3421 -8.2459c-1.3269,-0.4533 -2.3551,-1.1457 -3.0824,-2.0872 -0.7294,-0.9417 -1.0962,-2.2047 -1.0962,-3.7892 0,-1.0034 0.2081,-1.8729 0.6285,-2.6023 0.4224,-0.7336 0.9787,-1.3393 1.6668,-1.8235 0.6285,-0.443 1.362,-0.752 2.1986,-0.9272 0.8426,-0.1773 1.7698,-0.2679 2.7878,-0.2679l5.2231 0 0 19.7432zm-2.6249 -10.0344l0 -7.4547 -2.7322 0c-0.7603,0 -1.3723,0.0494 -1.8297,0.1443 -0.4615,0.1009 -0.8819,0.2761 -1.263,0.5295 -0.4059,0.2761 -0.7233,0.6614 -0.954,1.1559 -0.2308,0.4966 -0.3442,1.0405 -0.3442,1.6339 0,0.7048 0.0804,1.294 0.2432,1.7638 0.1649,0.4656 0.4306,0.884 0.7933,1.2445 0.3977,0.3894 0.8819,0.6531 1.4567,0.783 0.5749,0.1318 1.2445,0.1998 2.0049,0.1998l2.625 0z"/>
  <path class="fil1" d="M243.845 116.802l-0.003 0.4997 -0.0103 0.4956 -0.0169 0.4933 -0.0243 0.491 -0.0301 0.4881 -0.0377 0.4852 -0.0447 0.4828 -0.0516 0.4795 -0.0574 0.4771 -0.0655 0.4747 -0.0718 0.4719 -0.0795 0.4684 -0.0852 0.4655 -0.0927 0.4638 -0.0992 0.4596 -0.1067 0.4569 -0.113 0.4551 -0.12 0.4521 -0.1269 0.4493 -0.1345 0.4457 -0.1403 0.4441 -0.1478 0.4399 -0.1548 0.4372 -0.1618 0.4342 -0.1674 0.4318 -0.1757 0.4284 -0.1821 0.4255 -0.1889 0.4226 -0.1954 0.4202 -0.2029 0.4168 -0.2098 0.4146 -0.2162 0.4098 -0.2214 0.4046 -0.2256 0.4006 -0.2308 0.3947 -0.2359 0.389 -0.2399 0.3832 -0.2447 0.378 -0.2492 0.3727 -0.254 0.3658 -0.2585 0.3617 -0.2632 0.3554 -0.2683 0.3502 -0.2725 0.3437 -0.2777 0.3391 -0.2823 0.3334 -0.2864 0.3274 -0.291 0.3206 -0.2956 0.3165 -0.3009 0.3102 -0.3049 0.3054 -0.3101 0.2986 -0.3142 0.2933 -0.3194 0.2876 -0.3235 0.2817 -0.3287 0.2759 -0.3322 0.2701 -0.3373 0.265 -0.3426 0.2585 -0.3467 0.2528 -0.3501 0.2469 -0.3559 0.2418 -0.3606 0.2359 -0.3635 0.2283 -0.2557 0.1566 -0.2567 0.1525 -0.2592 0.1507 -0.2602 0.1467 -0.2615 0.1443 -0.2644 0.1414 -0.266 0.1397 -0.2673 0.1357 -0.2689 0.1333 -0.2713 0.131 -0.2731 0.1282 -0.2747 0.1251 -0.2759 0.1224 -0.2783 0.12 -0.2806 0.1171 -0.2811 0.1142 -0.2829 0.1113 -0.2853 0.109 -0.2874 0.106 -0.2888 0.1032 -0.2904 0.1003 -0.2922 0.098 -0.2939 0.0956 -0.2962 0.0922 -0.2968 0.0899 -0.2997 0.0869 -0.3014 0.0841 -0.302 0.0812 -0.3044 0.0788 -0.3066 0.0759 -0.3078 0.073 -0.3096 0.0702 -0.3131 0.0683 -0.3205 0.0661 -0.3259 0.0638 -0.3309 0.0615 -0.3368 0.0591 -0.3432 0.0574 -0.3489 0.0545 -0.3537 0.0522 -0.3594 0.051 -0.3664 0.0481 -0.3716 0.0463 -0.3773 0.0435 -0.3826 0.0418 -0.389 0.0394 -0.3948 0.0371 -0.4 0.0348 -0.4058 0.0336 -0.4127 0.0313 -0.4174 0.0284 -0.4237 0.0267 -0.429 0.0243 -0.4353 0.022 -0.4412 0.0203 -0.4469 0.018 -0.4534 0.0162 -0.4585 0.0134 -0.4643 0.0116 -0.4702 0.0093 -0.4759 0.0081 -0.4823 0.0052 -0.4881 0.0028 -0.4933 0.0013 -15.3926 0 0 -59.0772 15.239 0 0.5241 0.0017 0.5182 0.0034 0.5118 0.0065 0.5049 0.0081 0.4991 0.0104 0.4917 0.0133 0.4851 0.0157 0.4783 0.018 0.473 0.0208 0.4655 0.022 0.4592 0.0261 0.4521 0.0273 0.4463 0.0302 0.4394 0.0325 0.4325 0.0347 0.4267 0.0371 0.4203 0.04 0.4127 0.0418 0.4069 0.0446 0.3995 0.0469 0.3948 0.0498 0.3866 0.0517 0.3808 0.0545 0.3746 0.0568 0.3674 0.0591 0.3617 0.0615 0.3548 0.0649 0.3484 0.0661 0.3432 0.0695 0.3356 0.0719 0.3293 0.0742 0.3218 0.0765 0.3159 0.0788 0.3113 0.0801 0.3084 0.0823 0.3061 0.0834 0.3025 0.0859 0.3004 0.0875 0.2968 0.0893 0.2944 0.091 0.2922 0.0939 0.2881 0.0945 0.2852 0.0967 0.2829 0.0986 0.28 0.1009 0.2771 0.1025 0.2736 0.1045 0.2713 0.106 0.2695 0.1085 0.265 0.1101 0.2632 0.1124 0.2591 0.1131 0.2574 0.1165 0.2527 0.1171 0.2516 0.1194 0.2487 0.1217 0.2458 0.1235 0.2423 0.1258 0.2394 0.127 0.2365 0.1292 0.2336 0.131 0.2313 0.1328 0.2279 0.1356 0.2272 0.138 0.3768 0.2394 0.3698 0.2435 0.3658 0.2486 0.3594 0.2528 0.3548 0.2586 0.3495 0.2625 0.3449 0.2684 0.3386 0.2731 0.3351 0.2783 0.3292 0.2828 0.3241 0.2882 0.3182 0.2927 0.3136 0.2979 0.3084 0.3026 0.3032 0.3078 0.298 0.3119 0.2927 0.3183 0.2875 0.3223 0.283 0.3276 0.2764 0.3315 0.272 0.3368 0.2666 0.3421 0.2614 0.3472 0.2557 0.3507 0.251 0.3565 0.2458 0.3612 0.2406 0.3657 0.2348 0.3705 0.2294 0.3756 0.2244 0.3803 0.2191 0.3849 0.2139 0.3895 0.2093 0.3972 0.2017 0.4005 0.196 0.4064 0.1884 0.4098 0.182 0.4145 0.1756 0.4185 0.1688 0.4232 0.1616 0.4273 0.156 0.4319 0.1484 0.437 0.1421 0.4406 0.135 0.4447 0.1293 0.4498 0.1217 0.4533 0.1159 0.4579 0.1079 0.4621 0.1026 0.4666 0.0957 0.4712 0.0886 0.4754 0.0818 0.4788 0.0759 0.4841 0.069 0.4875 0.0626 0.4922 0.0551 0.4962 0.0498 0.5015 0.0424 0.5049 0.0359 0.5095 0.0289 0.513 0.0233 0.5177 0.0162 0.5217 0.0098 0.5264 0.003 0.5299zm-9.7731 -0.1142l-0.0018 -0.4082 -0.0069 -0.4034 -0.011 -0.3989 -0.0157 -0.3954 -0.0202 -0.3901 -0.0244 -0.3866 -0.029 -0.3815 -0.0336 -0.3773 -0.0377 -0.3733 -0.0423 -0.3688 -0.0464 -0.3646 -0.0516 -0.36 -0.0551 -0.3564 -0.0597 -0.3507 -0.0643 -0.3468 -0.069 -0.3437 -0.0724 -0.3386 -0.0777 -0.3339 -0.0817 -0.3298 -0.0859 -0.3263 -0.0898 -0.3207 -0.0945 -0.317 -0.0991 -0.313 -0.1032 -0.3085 -0.1073 -0.3049 -0.1113 -0.2991 -0.1165 -0.2956 -0.12 -0.2922 -0.1246 -0.2875 -0.1292 -0.2841 -0.1322 -0.2789 -0.1357 -0.2712 -0.2899 -0.5426 -0.3037 -0.5246 -0.3206 -0.5078 -0.3385 -0.4951 -0.3548 -0.4794 -0.3716 -0.4649 -0.3889 -0.4499 -0.4064 -0.4358 -0.4232 -0.4221 -0.44 -0.4069 -0.4579 -0.3937 -0.476 -0.3791 -0.4933 -0.3646 -0.5113 -0.3513 -0.5298 -0.3368 -0.5501 -0.3252 -0.4058 -0.2244 -0.4139 -0.2174 -0.4157 -0.2092 -0.4191 -0.2 -0.4226 -0.1913 -0.4254 -0.1826 -0.429 -0.1733 -0.4313 -0.1653 -0.4342 -0.1558 -0.4383 -0.1467 -0.4411 -0.1391 -0.4446 -0.1299 -0.4476 -0.1206 -0.4515 -0.1124 -0.4545 -0.1032 -0.4591 -0.0952 -0.229 -0.0433 -0.2371 -0.0435 -0.2389 -0.0418 -0.2411 -0.0405 -0.2452 -0.0389 -0.2482 -0.0377 -0.2516 -0.0365 -0.2544 -0.0353 -0.2563 -0.0331 -0.2608 -0.0319 -0.2632 -0.0307 -0.266 -0.0296 -0.2696 -0.0278 -0.2736 -0.0267 -0.276 -0.0249 -0.2782 -0.0238 -0.2812 -0.022 -0.2845 -0.0209 -0.2888 -0.0191 -0.291 -0.0186 -0.2933 -0.0162 -0.2967 -0.015 -0.3004 -0.014 -0.302 -0.0121 -0.3067 -0.0105 -0.3089 -0.0099 -0.3125 -0.0075 -0.3148 -0.007 -0.3176 -0.0045 -0.3218 -0.0035 -0.3246 -0.0023 -0.3287 -0.0013 -6.2427 0 0 42.28 6.2439 0 0.3402 -0.0005 0.3362 -0.0024 0.3328 -0.0034 0.331 -0.0058 0.3281 -0.007 0.3246 -0.0081 0.3218 -0.0104 0.3194 -0.0116 0.3171 -0.0128 0.3131 -0.0151 0.3112 -0.0162 0.3079 -0.0179 0.3054 -0.0192 0.302 -0.0209 0.2992 -0.022 0.2968 -0.0243 0.2939 -0.025 0.291 -0.0273 0.2881 -0.0283 0.2852 -0.0301 0.2835 -0.0314 0.2788 -0.033 0.2759 -0.0348 0.2742 -0.0365 0.2719 -0.0371 0.2673 -0.0394 0.2649 -0.0406 0.2626 -0.0429 0.2603 -0.0435 0.2562 -0.0452 0.2533 -0.0464 0.2511 -0.0493 0.2481 -0.0493 0.2434 -0.0521 0.2429 -0.0545 0.2429 -0.0574 0.2405 -0.0596 0.2389 -0.0627 0.2376 -0.0649 0.2366 -0.0684 0.2365 -0.0702 0.2331 -0.0724 0.2324 -0.0754 0.2318 -0.0782 0.2302 -0.0801 0.2284 -0.0834 0.2272 -0.0852 0.2262 -0.0893 0.226 -0.0904 0.2232 -0.0934 0.2215 -0.0957 0.2219 -0.0997 0.2203 -0.1002 0.2174 -0.1038 0.2174 -0.106 0.2151 -0.1096 0.2162 -0.112 0.2139 -0.1141 0.2116 -0.116 0.211 -0.1205 0.2098 -0.1212 0.2082 -0.1246 0.2064 -0.1264 0.2023 -0.1281 0.5072 -0.3339 0.4846 -0.3438 0.4684 -0.3553 0.451 -0.3681 0.4365 -0.3809 0.4192 -0.393 0.4034 -0.4053 0.3866 -0.4185 0.3722 -0.4301 0.3554 -0.4435 0.3391 -0.4556 0.3246 -0.4702 0.309 -0.4816 0.2921 -0.4952 0.2777 -0.5083 0.2632 -0.5258 0.1234 -0.262 0.1206 -0.2696 0.1172 -0.2736 0.1124 -0.2788 0.1096 -0.2835 0.1049 -0.2875 0.1015 -0.2915 0.0973 -0.2969 0.0946 -0.3026 0.0898 -0.3055 0.0864 -0.3096 0.0817 -0.3153 0.0783 -0.3194 0.0748 -0.324 0.07 -0.3276 0.0661 -0.3333 0.0627 -0.3385 0.0585 -0.3427 0.0545 -0.3466 0.051 -0.3513 0.0464 -0.3565 0.0429 -0.36 0.0383 -0.3646 0.0341 -0.3704 0.0308 -0.3746 0.026 -0.3791 0.0227 -0.3831 0.0185 -0.3884 0.0146 -0.3925 0.0097 -0.3971 0.0065 -0.4011 0.0011 -0.4069zm51.6779 -20.3995l0.204 0.2777 0.2007 0.2806 0.1976 0.2852 0.1931 0.2869 0.1901 0.2916 0.1867 0.2945 0.1837 0.2985 0.1792 0.3015 0.1768 0.3055 0.1727 0.3084 0.1692 0.3125 0.1658 0.3158 0.1624 0.3194 0.1583 0.3218 0.1553 0.3257 0.1519 0.3293 0.1484 0.3328 0.1443 0.3356 0.1415 0.3397 0.1379 0.3432 0.1339 0.3467 0.1305 0.3489 0.128 0.3543 0.123 0.3588 0.12 0.3628 0.1154 0.3664 0.1112 0.3704 0.1067 0.3739 0.1032 0.378 0.0985 0.3809 0.095 0.3849 0.0905 0.3896 0.087 0.3924 0.0823 0.3965 0.0788 0.4005 0.0737 0.4047 0.0706 0.4075 0.0655 0.411 0.0627 0.4157 0.0579 0.4196 0.0545 0.4226 0.0499 0.4261 0.047 0.4307 0.0411 0.4349 0.0382 0.4375 0.0338 0.4418 0.03 0.4452 0.0262 0.4499 0.022 0.4527 0.0179 0.4562 0.014 0.4608 0.0092 0.4644 0.0064 0.4678 0.0018 0.4719 -0.0018 0.4209 -0.0064 0.4191 -0.0099 0.4173 -0.0138 0.4146 -0.018 0.4133 -0.0226 0.411 -0.0261 0.4092 -0.0308 0.4063 -0.0336 0.4053 -0.0388 0.4029 -0.0423 0.4012 -0.0464 0.3987 -0.0504 0.3977 -0.0551 0.3954 -0.0585 0.393 -0.0633 0.3901 -0.0666 0.3896 -0.0708 0.3867 -0.0752 0.3854 -0.0795 0.3827 -0.0823 0.3808 -0.0876 0.3791 -0.0909 0.3774 -0.0957 0.3745 -0.0992 0.3727 -0.1043 0.3711 -0.1072 0.3692 -0.1119 0.3664 -0.1154 0.364 -0.1206 0.3629 -0.124 0.3612 -0.1281 0.3576 -0.1316 0.3554 -0.1356 0.3536 -0.1392 0.3496 -0.1432 0.346 -0.146 0.3437 -0.1502 0.3403 -0.1542 0.338 -0.1576 0.3339 -0.1607 0.3304 -0.1652 0.3287 -0.1687 0.3247 -0.1721 0.3217 -0.1757 0.3183 -0.1797 0.3159 -0.1837 0.313 -0.1872 0.3078 -0.1896 0.3061 -0.1948 0.3032 -0.1976 0.3003 -0.2018 0.2962 -0.2046 0.2933 -0.2093 0.2904 -0.2133 0.2876 -0.2157 0.2829 -0.2197 0.2805 -0.2231 0.2772 -0.2273 0.2747 -0.2308 0.2707 -0.2341 0.2679 -0.2383 0.2643 -0.2417 0.262 -0.2457 0.2574 -0.2546 0.2614 -0.258 0.2568 -0.2608 0.2539 -0.2637 0.2493 -0.2662 0.2452 -0.2695 0.2411 -0.2713 0.2377 -0.2747 0.2325 -0.2766 0.2296 -0.2806 0.2243 -0.2828 0.222 -0.2852 0.2162 -0.2876 0.2128 -0.291 0.2087 -0.2939 0.2046 -0.2962 0.2 -0.298 0.1971 -0.302 0.1919 -0.3043 0.189 -0.3073 0.1838 -0.3089 0.1807 -0.3125 0.1758 -0.3154 0.1721 -0.3176 0.1675 -0.3195 0.1635 -0.3235 0.16 -0.3257 0.1554 -0.3281 0.1507 -0.3299 0.1478 -0.3339 0.1432 -0.3368 0.1391 -0.3385 0.1345 -0.3397 0.131 -0.3426 0.1258 -0.3449 0.1223 -0.3461 0.1177 -0.3484 0.1142 -0.3507 0.1101 -0.353 0.1055 -0.3542 0.1009 -0.3554 0.0974 -0.3588 0.0927 -0.3606 0.0899 -0.3623 0.084 -0.364 0.0812 -0.3664 0.076 -0.3687 0.073 -0.3698 0.0678 -0.3716 0.0644 -0.3739 0.0597 -0.3768 0.0562 -0.3774 0.0511 -0.3797 0.048 -0.3814 0.0429 -0.3838 0.0394 -0.386 0.0349 -0.3867 0.0312 -0.3896 0.0267 -0.3913 0.0226 -0.3936 0.0186 -0.3948 0.0144 -0.3971 0.0099 -0.3988 0.0069 -0.3999 0.0013 -0.3444 -0.0006 -0.3438 -0.003 -0.3425 -0.0052 -0.3409 -0.0075 -0.3403 -0.0087 -0.3397 -0.0116 -0.338 -0.0133 -0.3373 -0.0162 -0.3357 -0.0168 -0.335 -0.0198 -0.3345 -0.0214 -0.3334 -0.0243 -0.3315 -0.0256 -0.3322 -0.0278 -0.3298 -0.0302 -0.3287 -0.0325 -0.3275 -0.0336 -0.327 -0.0359 -0.3263 -0.0382 -0.3247 -0.0407 -0.3234 -0.0416 -0.3235 -0.0447 -0.3218 -0.0464 -0.3205 -0.0487 -0.3195 -0.0504 -0.3182 -0.0521 -0.3183 -0.0551 -0.3164 -0.0569 -0.3154 -0.0585 -0.3148 -0.0615 -0.3136 -0.0626 -0.3125 -0.0655 -0.3083 -0.0661 -0.305 -0.0666 -0.3026 -0.0678 -0.2996 -0.0684 -0.2963 -0.069 -0.2933 -0.0707 -0.2905 -0.0707 -0.288 -0.0719 -0.2841 -0.0719 -0.2823 -0.0742 -0.2783 -0.0736 -0.2759 -0.0754 -0.273 -0.0754 -0.2701 -0.0771 -0.2679 -0.0771 -0.2637 -0.0782 -0.261 -0.0788 -0.2585 -0.0795 -0.2556 -0.0806 -0.2527 -0.0816 -0.2493 -0.0824 -0.2476 -0.0835 -0.2428 -0.084 -0.2412 -0.0853 -0.2376 -0.0852 -0.2348 -0.0864 -0.2325 -0.0869 -0.2295 -0.0887 -0.2267 -0.0887 -0.2238 -0.0904 -0.2202 -0.0905 -0.7844 -0.3298 0 -9.9724 1.8678 0 0.4446 0.3461 0.1896 0.1431 0.193 0.1421 0.1959 0.1396 0.1995 0.138 0.2029 0.1368 0.2063 0.1344 0.2087 0.1329 0.2128 0.1316 0.2156 0.1292 0.2191 0.1275 0.2221 0.1264 0.2255 0.1241 0.2289 0.1222 0.2319 0.1206 0.2347 0.1189 0.2395 0.1176 0.2417 0.1154 0.2453 0.1131 0.2481 0.1112 0.2521 0.1102 0.255 0.1084 0.258 0.1061 0.2621 0.1043 0.2649 0.1032 0.2684 0.1003 0.2719 0.0992 0.2742 0.0967 0.2787 0.0957 0.2813 0.0934 0.2846 0.0915 0.2881 0.0893 0.291 0.0875 0.2904 0.0852 0.2916 0.0812 0.2939 0.0788 0.295 0.0771 0.2951 0.0725 0.298 0.0707 0.2991 0.0679 0.3002 0.0655 0.3022 0.062 0.3031 0.0603 0.3037 0.0568 0.3056 0.0539 0.306 0.051 0.3085 0.0481 0.3106 0.0458 0.3113 0.0435 0.3114 0.04 0.3141 0.0376 0.3153 0.0343 0.3172 0.0318 0.3182 0.0296 0.3183 0.0267 0.3205 0.0226 0.3223 0.0215 0.3229 0.0179 0.3252 0.0151 0.3265 0.0122 0.3274 0.0098 0.3287 0.007 0.3304 0.004 0.3317 0.0012 0.2863 -0.0012 0.2835 -0.0046 0.2823 -0.0082 0.2806 -0.011 0.2788 -0.0138 0.2759 -0.0174 0.2754 -0.0203 0.2742 -0.0238 0.273 -0.0267 0.2701 -0.0296 0.2679 -0.033 0.2672 -0.0365 0.2661 -0.0388 0.2632 -0.0424 0.262 -0.0451 0.2602 -0.0493 0.2597 -0.0517 0.2568 -0.0545 0.2552 -0.0573 0.2544 -0.0615 0.2528 -0.0638 0.2499 -0.0672 0.2486 -0.0707 0.2481 -0.0736 0.247 -0.0765 0.2441 -0.0795 0.2428 -0.0829 0.2412 -0.0857 0.2399 -0.0894 0.2383 -0.092 0.236 -0.0946 0.2335 -0.098 0.469 -0.2063 0.4557 -0.2139 0.4458 -0.2232 0.4353 -0.2313 0.4249 -0.24 0.4145 -0.2498 0.4046 -0.258 0.3942 -0.2667 0.3844 -0.2753 0.3739 -0.2841 0.364 -0.2927 0.3537 -0.3021 0.3442 -0.31 0.3345 -0.3195 0.3241 -0.3281 0.3148 -0.338 0.3263 -0.3703 0.3171 -0.3774 0.3067 -0.3832 0.2962 -0.3896 0.2864 -0.3954 0.2759 -0.4005 0.2649 -0.4064 0.2551 -0.4133 0.2452 -0.4179 0.2342 -0.4244 0.2249 -0.4296 0.2139 -0.4364 0.2041 -0.4424 0.1935 -0.4481 0.1839 -0.4544 0.1745 -0.4644 0.0829 -0.2296 0.0793 -0.233 0.0777 -0.2359 0.0748 -0.2394 0.0725 -0.24 0.0695 -0.2424 0.0678 -0.2445 0.0638 -0.2476 0.0626 -0.2499 0.0597 -0.2516 0.0569 -0.2515 0.0538 -0.2562 0.0517 -0.258 0.0493 -0.2597 0.0457 -0.2614 0.0441 -0.2655 0.0418 -0.2667 0.0382 -0.2673 0.0359 -0.2701 0.033 -0.2742 0.0308 -0.2748 0.0278 -0.2764 0.0256 -0.2795 0.022 -0.2823 0.0208 -0.2846 0.0175 -0.2858 0.0144 -0.287 0.0121 -0.2904 0.0082 -0.2533 -31.4031 0 0 -8.3968 30.8918 0 -0.0058 -0.0383 -0.0429 -0.2638 -0.0458 -0.2614 -0.0475 -0.258 -0.051 -0.2574 -0.0516 -0.2539 -0.0551 -0.2516 -0.0568 -0.2486 -0.0591 -0.247 -0.0615 -0.2447 -0.0638 -0.2417 -0.0661 -0.2388 -0.0683 -0.2371 -0.0707 -0.2348 -0.0725 -0.2318 -0.0754 -0.2296 -0.0771 -0.2279 -0.0794 -0.2243 -0.0818 -0.222 -0.084 -0.2203 -0.0864 -0.2185 -0.0881 -0.2151 -0.0904 -0.2122 -0.0928 -0.2098 -0.0956 -0.2087 -0.0968 -0.2058 -0.0991 -0.2028 -0.1021 -0.2007 -0.1031 -0.1971 -0.2169 -0.3953 -0.2226 -0.3849 -0.2289 -0.3745 -0.2365 -0.3669 -0.2436 -0.3566 -0.2498 -0.3484 -0.2562 -0.339 -0.2643 -0.3305 -0.2702 -0.3212 -0.2777 -0.3124 -0.2841 -0.3032 -0.2921 -0.2956 -0.2979 -0.2864 -0.3056 -0.2777 -0.3124 -0.2695 -0.3194 -0.2609 -0.3269 -0.2521 -0.3339 -0.2453 -0.3392 -0.2365 -0.3438 -0.229 -0.35 -0.2197 -0.3554 -0.2121 -0.3606 -0.2035 -0.3663 -0.1959 -0.3716 -0.1861 -0.3774 -0.1792 -0.3832 -0.1704 -0.389 -0.1628 -0.3947 -0.1537 -0.4 -0.1461 -0.4064 -0.1374 -0.4127 -0.1298 -0.4175 -0.1212 -0.4231 -0.1135 -0.4266 -0.1068 -0.4302 -0.0985 -0.433 -0.0904 -0.4371 -0.0829 -0.4412 -0.0754 -0.4446 -0.0672 -0.4475 -0.0592 -0.4528 -0.0516 -0.4555 -0.0434 -0.4597 -0.036 -0.4633 -0.0278 -0.4678 -0.0197 -0.4707 -0.0122 -0.4764 -0.0041 -0.3201 0.0018 -0.3211 0.004 -0.3194 0.007 -0.3182 0.0099 -0.316 0.0127 -0.3159 0.0151 -0.3143 0.0185 -0.3124 0.0209 -0.3107 0.0238 -0.3107 0.0267 -0.309 0.0295 -0.3067 0.0319 -0.3061 0.0354 -0.3048 0.037 -0.3039 0.0412 -0.302 0.0429 -0.299 0.0458 -0.3004 0.0493 -0.2985 0.0515 -0.2962 0.0545 -0.2957 0.0575 -0.2945 0.0597 -0.2927 0.0631 -0.2916 0.065 -0.2893 0.0683 -0.2892 0.0708 -0.2881 0.0742 -0.2858 0.0765 -0.2852 0.08 -0.2847 0.0817 -0.2828 0.0853 -0.2811 0.0875 -0.2789 0.0899 -0.2777 0.0933 -0.2759 0.0945 -0.2731 0.0968 -0.2695 0.0985 -0.2678 0.1003 -0.2655 0.1032 -0.2615 0.1038 -0.2597 0.1066 -0.2579 0.109 -0.2557 0.1107 -0.2515 0.112 -0.2493 0.1147 -0.2481 0.1165 -0.2458 0.1188 -0.2412 0.1195 -0.2388 0.1229 -0.2376 0.124 -0.2348 0.1269 -0.2319 0.1282 -0.2296 0.1304 -0.2273 0.1321 -0.2255 0.1352 -0.2214 0.1351 -0.2185 0.1385 -0.2174 0.1409 -0.2157 0.1419 -0.2115 0.1439 -0.2093 0.146 -0.2075 0.1484 -0.2053 0.1508 -0.4556 0.3408 -1.8984 0 0 -10.0409 0.8028 -0.3316 0.2336 -0.0956 0.2371 -0.0939 0.2388 -0.0933 0.2418 -0.0922 0.2441 -0.091 0.2457 -0.0899 0.2493 -0.0898 0.2522 -0.0881 0.2533 -0.087 0.2568 -0.0858 0.2591 -0.0852 0.2621 -0.0841 0.2631 -0.0835 0.2661 -0.0817 0.269 -0.0811 0.2725 -0.08 0.2735 -0.0794 0.276 -0.0778 0.2787 -0.0771 0.2818 -0.0758 0.2835 -0.0748 0.2857 -0.0743 0.2893 -0.0736 0.2922 -0.0719 0.2934 -0.0713 0.2956 -0.0701 0.2991 -0.0696 0.3014 -0.0678 0.3032 -0.0672 0.3061 -0.0667 0.3102 -0.0655 0.3123 -0.0638 0.3114 -0.062 0.3136 -0.0603 0.313 -0.058 0.3148 -0.0556 0.3136 -0.054 0.3148 -0.0515 0.3147 -0.0504 0.3166 -0.0476 0.316 -0.0458 0.3164 -0.0434 0.3171 -0.0424 0.3177 -0.0394 0.3171 -0.0377 0.3183 -0.0353 0.3188 -0.0343 0.32 -0.0312 0.3199 -0.0296 0.3201 -0.0273 0.3205 -0.026 0.3218 -0.0233 0.3211 -0.0214 0.3218 -0.0191 0.3222 -0.0179 0.3235 -0.0151 0.3234 -0.0133 0.3235 -0.011 0.3241 -0.0099 0.3252 -0.0064 0.3247 -0.0058 0.3257 -0.0029 0.3263 -0.0012 0.4215 0.0017 0.4179 0.0058 0.4157 0.0093 0.4127 0.0128 0.4111 0.0168 0.4075 0.0203 0.4046 0.0237 0.4029 0.0278 0.4 0.0314 0.3971 0.0353 0.3941 0.0389 0.392 0.0423 0.3895 0.0464 0.3861 0.0499 0.3837 0.0532 0.3814 0.0575 0.3798 0.0614 0.3756 0.0649 0.3733 0.0684 0.3711 0.072 0.3681 0.0764 0.3651 0.0795 0.3629 0.0834 0.3595 0.087 0.3582 0.0916 0.3541 0.0945 0.352 0.098 0.3489 0.1025 0.3472 0.1061 0.3438 0.109 0.3409 0.1136 0.3385 0.1172 0.3368 0.1217 0.3328 0.1245 0.3298 0.1288 0.3275 0.1316 0.3253 0.1368 0.3211 0.1397 0.3188 0.1437 0.316 0.1478 0.313 0.1514 0.3101 0.1553 0.3067 0.1588 0.3044 0.1624 0.302 0.1669 0.2979 0.1704 0.2951 0.1734 0.2922 0.1779 0.2904 0.182 0.2863 0.1856 0.2841 0.189 0.28 0.193 0.2782 0.1971 0.2742 0.2 0.2719 0.204 0.2684 0.2076 0.2661 0.2127 0.262 0.2151 0.2597 0.2191 0.2568 0.2226 0.2533 0.2267 0.2505 0.2301 0.2475 0.2342 0.2458 0.2389 0.2412 0.2434 0.2359 0.2458 0.2324 0.2492 0.2284 0.2528 0.2256 0.2562 0.2214 0.2597 0.218 0.2632 0.2145 0.2667 0.2115 0.2707 0.2081 0.2736zm53.668 49.9946l-9.4293 0 0 -27.9766 -26.8027 0 0 27.9766 -9.4286 0 0 -59.0772 9.4286 0 0 22.4741 26.8027 0 0 -22.4741 9.4293 0 0 59.0772zm56.2349 0l-10.042 0 -5.5999 -15.9388 -23.565 0 -5.6004 15.9388 -9.6763 0 21.5147 -59.0772 11.4541 0 21.5148 59.0772zm-18.6841 -24.335l-8.7423 -24.4898 -8.7777 24.4898 17.52 0zm61.9993 20.4418l-0.2643 0.1165 -0.4816 0.215 -0.2424 0.1096 -0.2388 0.1072 -0.236 0.1072 -0.2331 0.1061 -0.2294 0.1055 -0.2262 0.1043 -0.2231 0.1032 -0.2197 0.1021 -0.2169 0.102 -0.2162 0.1009 -0.2249 0.1049 -0.2365 0.1061 -0.2434 0.1061 -0.2511 0.1066 -0.2597 0.1073 -0.2666 0.1072 -0.2748 0.1079 -0.2829 0.1077 -0.2905 0.1085 -0.2985 0.109 -0.3072 0.1095 -0.3142 0.1096 -0.3223 0.1101 -0.331 0.1107 -0.3386 0.1113 -0.3501 0.1119 -0.3043 0.0934 -0.3056 0.0915 -0.3083 0.0893 -0.3114 0.087 -0.3141 0.0857 -0.3172 0.0842 -0.3211 0.0822 -0.3223 0.08 -0.3263 0.0788 -0.3293 0.0771 -0.3333 0.0754 -0.3351 0.0737 -0.3379 0.0719 -0.3421 0.0707 -0.3449 0.0684 -0.3484 0.0672 -0.3571 0.0649 -0.3617 0.0603 -0.3675 0.0568 -0.3698 0.0516 -0.3752 0.0487 -0.3778 0.0435 -0.3832 0.04 -0.3868 0.0348 -0.3912 0.0319 -0.3954 0.0266 -0.4 0.0232 -0.4023 0.0186 -0.4081 0.015 -0.4122 0.0099 -0.4161 0.0063 -0.4192 0.0019 -0.3965 -0.0013 -0.3948 -0.0058 -0.3918 -0.0086 -0.3896 -0.0123 -0.3878 -0.0155 -0.3855 -0.0192 -0.3843 -0.0226 -0.3815 -0.0267 -0.3791 -0.0295 -0.3768 -0.0331 -0.3757 -0.0371 -0.372 -0.04 -0.3711 -0.044 -0.3687 -0.047 -0.3669 -0.051 -0.3635 -0.0551 -0.3623 -0.0574 -0.3606 -0.0614 -0.3582 -0.065 -0.3548 -0.0689 -0.3542 -0.0719 -0.3518 -0.0754 -0.3496 -0.0794 -0.3461 -0.0829 -0.3449 -0.0858 -0.3426 -0.0899 -0.3421 -0.0933 -0.3373 -0.0973 -0.3362 -0.0998 -0.3345 -0.1043 -0.3322 -0.1078 -0.3293 -0.1113 -0.3287 -0.1148 -0.3269 -0.12 -0.324 -0.1235 -0.3206 -0.1281 -0.3189 -0.1316 -0.3158 -0.1362 -0.3136 -0.1397 -0.3102 -0.1437 -0.3078 -0.1479 -0.3061 -0.1524 -0.3038 -0.156 -0.2997 -0.1606 -0.2974 -0.1641 -0.2951 -0.1686 -0.2915 -0.1722 -0.2892 -0.1768 -0.2871 -0.1797 -0.2839 -0.1849 -0.2824 -0.1884 -0.2782 -0.1925 -0.276 -0.1965 -0.2736 -0.2011 -0.2707 -0.2046 -0.2673 -0.2087 -0.2654 -0.2122 -0.2621 -0.2169 -0.2602 -0.2202 -0.2569 -0.2255 -0.2538 -0.2284 -0.2516 -0.2331 -0.2487 -0.2365 -0.2447 -0.2406 -0.2388 -0.2388 -0.2353 -0.2446 -0.2331 -0.2481 -0.2295 -0.2528 -0.2255 -0.2562 -0.2226 -0.2608 -0.2192 -0.2638 -0.2156 -0.2684 -0.2122 -0.2719 -0.2092 -0.2759 -0.2058 -0.2806 -0.2017 -0.2841 -0.1989 -0.2875 -0.1954 -0.2921 -0.1924 -0.2957 -0.1884 -0.2991 -0.1855 -0.3032 -0.1814 -0.3072 -0.1792 -0.3108 -0.1751 -0.3153 -0.1715 -0.3182 -0.1688 -0.3235 -0.1652 -0.3263 -0.1611 -0.3305 -0.1588 -0.3333 -0.1548 -0.338 -0.1519 -0.3414 -0.1478 -0.3455 -0.1455 -0.3491 -0.1415 -0.3535 -0.1385 -0.3565 -0.1345 -0.3606 -0.1322 -0.3652 -0.1275 -0.3692 -0.1235 -0.3734 -0.1188 -0.3762 -0.1153 -0.3797 -0.1102 -0.3838 -0.1067 -0.3866 -0.102 -0.3901 -0.0985 -0.3937 -0.0933 -0.3977 -0.09 -0.4006 -0.0846 -0.4045 -0.0817 -0.4069 -0.0765 -0.4111 -0.073 -0.4151 -0.0679 -0.4179 -0.065 -0.4209 -0.0596 -0.4249 -0.0569 -0.4284 -0.051 -0.4319 -0.0481 -0.4347 -0.0435 -0.4389 -0.0394 -0.4422 -0.0347 -0.4459 -0.0314 -0.4486 -0.0266 -0.4528 -0.0232 -0.4562 -0.0179 -0.4591 -0.0151 -0.4626 -0.0099 -0.4667 -0.0064 -0.4695 -0.0017 -0.4736 0.0017 -0.4486 0.0064 -0.4465 0.0093 -0.444 0.0145 -0.4411 0.0174 -0.4383 0.022 -0.4353 0.0255 -0.4325 0.0302 -0.4295 0.0336 -0.4261 0.0382 -0.4249 0.0418 -0.4209 0.0458 -0.4185 0.0498 -0.4151 0.0539 -0.4133 0.058 -0.4099 0.0621 -0.4075 0.0655 -0.4034 0.07 -0.4017 0.0743 -0.3983 0.0782 -0.3959 0.0818 -0.3925 0.0864 -0.3902 0.0898 -0.3872 0.095 -0.3843 0.0974 -0.3809 0.1027 -0.3791 0.1066 -0.3756 0.1107 -0.3734 0.1142 -0.3692 0.1189 -0.367 0.1228 -0.3652 0.127 -0.3611 0.1299 -0.3571 0.1345 -0.3548 0.138 -0.3507 0.1413 -0.3472 0.1444 -0.3438 0.149 -0.342 0.1525 -0.3369 0.1559 -0.3344 0.1588 -0.3305 0.1635 -0.3274 0.1664 -0.3241 0.171 -0.3212 0.1739 -0.3171 0.1779 -0.3136 0.1815 -0.3112 0.1855 -0.3078 0.1878 -0.3027 0.1924 -0.3008 0.196 -0.2968 0.1994 -0.2939 0.2036 -0.2899 0.2063 -0.2869 0.211 -0.2835 0.2138 -0.28 0.2175 -0.2759 0.222 -0.2731 0.225 -0.2695 0.2289 -0.2661 0.2318 -0.262 0.236 -0.2597 0.2394 -0.2551 0.2429 -0.2522 0.2389 -0.2406 0.2417 -0.2371 0.2446 -0.2335 0.2482 -0.2307 0.2509 -0.2255 0.2545 -0.2238 0.2574 -0.2191 0.2609 -0.2162 0.2631 -0.2117 0.2661 -0.2087 0.2696 -0.2046 0.273 -0.2017 0.2753 -0.1971 0.2789 -0.1942 0.2823 -0.1907 0.2853 -0.1867 0.2874 -0.1831 0.2911 -0.1798 0.2939 -0.1756 0.2974 -0.1721 0.299 -0.1682 0.3032 -0.1652 0.3061 -0.1612 0.3089 -0.1582 0.3119 -0.1536 0.3149 -0.1508 0.3182 -0.1467 0.3206 -0.1437 0.324 -0.1391 0.3263 -0.1357 0.3293 -0.1322 0.3328 -0.1286 0.335 -0.1252 0.3375 -0.1206 0.339 -0.1171 0.3421 -0.1131 0.3443 -0.1084 0.3461 -0.1055 0.3478 -0.1002 0.3513 -0.098 0.3525 -0.0922 0.3553 -0.0893 0.3566 -0.0852 0.3599 -0.0811 0.3612 -0.0771 0.364 -0.0731 0.3658 -0.0689 0.3681 -0.0655 0.3698 -0.0609 0.3722 -0.0574 0.3745 -0.0534 0.3768 -0.0492 0.378 -0.0453 0.3814 -0.0417 0.3826 -0.0371 0.3855 -0.0342 0.3872 -0.029 0.389 -0.026 0.3919 -0.0215 0.3936 -0.018 0.3954 -0.0133 0.3976 -0.0099 0.4 -0.0064 0.4028 -0.0017 0.2951 0.0012 0.2957 0.0035 0.2945 0.0058 0.295 0.0081 0.2951 0.0098 0.2951 0.0122 0.2944 0.0145 0.2956 0.0168 0.2951 0.0191 0.294 0.0215 0.2944 0.0231 0.2951 0.0256 0.2957 0.0283 0.2938 0.0302 0.294 0.0325 0.2962 0.0342 0.2945 0.0377 0.2939 0.0388 0.2945 0.0417 0.2944 0.0435 0.2939 0.0458 0.2939 0.0482 0.2939 0.0498 0.2951 0.0527 0.2939 0.0551 0.2939 0.0569 0.2933 0.0584 0.2951 0.0615 0.2939 0.0638 0.2939 0.0661 0.2927 0.0677 0.2957 0.0702 0.2962 0.0743 0.2979 0.0771 0.2998 0.0799 0.302 0.0836 0.3037 0.0868 0.305 0.0905 0.3072 0.0939 0.3096 0.0969 0.3113 0.1002 0.313 0.1038 0.3142 0.1066 0.3165 0.1101 0.3189 0.1137 0.3199 0.1171 0.3218 0.12 0.3246 0.1229 0.3258 0.1275 0.3275 0.1298 0.3293 0.1334 0.3321 0.1368 0.3328 0.1408 0.335 0.1426 0.3368 0.1467 0.3397 0.1501 0.3414 0.1537 0.3421 0.156 0.3444 0.1599 0.3472 0.163 0.3483 0.1669 0.3502 0.1693 0.3519 0.1727 0.8689 0.4313 0 10.5632 -1.8428 0 -0.5519 -0.4568 -0.2893 -0.2359 -0.2892 -0.2319 -0.2893 -0.2279 -0.2886 -0.2232 -0.2882 -0.2191 -0.288 -0.2156 -0.2871 -0.2104 -0.2874 -0.2064 -0.2875 -0.2024 -0.2871 -0.1982 -0.2857 -0.1942 -0.2864 -0.1896 -0.2863 -0.1861 -0.2853 -0.1814 -0.284 -0.1768 -0.2852 -0.1721 -0.2853 -0.1693 -0.2846 -0.1652 -0.2834 -0.16 -0.2835 -0.156 -0.2841 -0.1524 -0.2828 -0.1484 -0.2824 -0.1438 -0.2817 -0.1386 -0.2834 -0.1362 -0.2824 -0.1322 -0.2811 -0.1275 -0.2806 -0.1228 -0.2811 -0.1195 -0.2807 -0.1153 -0.2787 -0.1102 -0.2812 -0.1067 -0.2823 -0.1038 -0.2835 -0.1002 -0.2846 -0.0974 -0.2857 -0.0934 -0.2876 -0.0898 -0.2881 -0.0869 -0.2893 -0.0835 -0.2904 -0.0794 -0.2927 -0.0771 -0.2934 -0.0731 -0.2944 -0.0695 -0.2957 -0.0661 -0.2974 -0.0632 -0.2986 -0.0597 -0.2985 -0.0562 -0.3014 -0.0522 -0.3032 -0.0499 -0.3031 -0.0458 -0.305 -0.0423 -0.3067 -0.0394 -0.3072 -0.0359 -0.3095 -0.0325 -0.3096 -0.029 -0.3113 -0.0255 -0.313 -0.022 -0.3148 -0.0192 -0.3154 -0.0156 -0.3165 -0.0116 -0.3183 -0.0087 -0.3199 -0.0052 -0.3212 -0.0018 -0.2608 0.0013 -0.2591 0.0039 -0.2574 0.0071 -0.2557 0.0092 -0.255 0.0122 -0.2522 0.0139 -0.2505 0.0179 -0.2481 0.0192 -0.2469 0.0226 -0.2453 0.0249 -0.2434 0.0279 -0.2411 0.0301 -0.2401 0.033 -0.2376 0.0355 -0.236 0.0381 -0.2341 0.0407 -0.2325 0.0434 -0.2307 0.0458 -0.229 0.0487 -0.2272 0.0504 -0.2255 0.0545 -0.2244 0.0557 -0.222 0.0591 -0.2197 0.0609 -0.2185 0.0643 -0.2169 0.0661 -0.215 0.069 -0.2134 0.0719 -0.2115 0.0736 -0.2098 0.0771 -0.2087 0.0794 -0.2023 0.08 -0.4111 0.1734 -0.4017 0.1826 -0.3966 0.1947 -0.3907 0.2058 -0.3854 0.2174 -0.3797 0.229 -0.3745 0.24 -0.3693 0.2522 -0.364 0.2643 -0.3588 0.2748 -0.3537 0.288 -0.3478 0.2992 -0.3438 0.3113 -0.3379 0.3235 -0.3328 0.3344 -0.3263 0.3462 -0.3096 0.3472 -0.3002 0.3576 -0.2923 0.3698 -0.2834 0.3815 -0.2753 0.393 -0.2667 0.4046 -0.2591 0.4169 -0.2499 0.4283 -0.2423 0.4412 -0.2341 0.4528 -0.2249 0.4649 -0.2163 0.4764 -0.2087 0.4893 -0.1994 0.5015 -0.1913 0.513 -0.1832 0.528 -0.0875 0.265 -0.0847 0.2678 -0.0817 0.2719 -0.0794 0.2748 -0.0771 0.2771 -0.0737 0.2806 -0.0713 0.2817 -0.0684 0.2852 -0.0655 0.288 -0.0625 0.2911 -0.0603 0.2933 -0.0575 0.2968 -0.0545 0.2997 -0.0521 0.3014 -0.0493 0.305 -0.0458 0.3072 -0.0434 0.3108 -0.0412 0.313 -0.0377 0.3159 -0.0353 0.3188 -0.0325 0.3212 -0.029 0.3235 -0.0266 0.328 -0.0239 0.3293 -0.0214 0.3334 -0.018 0.3356 -0.0156 0.3374 -0.0122 0.3414 -0.0104 0.3437 -0.007 0.3461 -0.0041 0.349 -0.0011 0.3525 0.0011 0.3681 0.0047 0.3652 0.0075 0.3618 0.0117 0.3576 0.0133 0.3547 0.0173 0.3513 0.0204 0.3473 0.0231 0.3443 0.0267 0.3409 0.029 0.3374 0.0324 0.3339 0.036 0.3298 0.0383 0.3269 0.0417 0.3229 0.0452 0.3194 0.0481 0.3166 0.0511 0.3136 0.0538 0.3096 0.0569 0.3054 0.0603 0.3026 0.0625 0.2992 0.0661 0.2956 0.0691 0.2916 0.0724 0.2887 0.0754 0.2857 0.0776 0.2813 0.0812 0.2782 0.0846 0.2747 0.087 0.2719 0.0898 0.2673 0.0928 0.2643 0.0956 0.2597 0.2023 0.5229 0.2081 0.5078 0.2139 0.4939 0.2221 0.4818 0.2283 0.4683 0.2348 0.4551 0.2412 0.4423 0.2487 0.4296 0.2545 0.4167 0.2608 0.403 0.2673 0.3912 0.2748 0.378 0.28 0.3652 0.2869 0.3525 0.2934 0.3403 0.3002 0.328 0.3212 0.3316 0.3287 0.3206 0.335 0.3102 0.3414 0.2985 0.3478 0.2875 0.3543 0.276 0.3605 0.2654 0.3681 0.2539 0.374 0.2435 0.3802 0.2319 0.3872 0.2214 0.3942 0.2099 0.4011 0.2 0.4075 0.1883 0.4146 0.1781 0.4272 0.1686 0.211 0.0795 0.215 0.0776 0.2158 0.0748 0.2173 0.0731 0.2174 0.0701 0.2191 0.0672 0.2186 0.0656 0.2203 0.0614 0.2214 0.0608 0.2214 0.0575 0.2221 0.0545 0.2238 0.0521 0.2242 0.0504 0.2244 0.0464 0.2249 0.0447 0.2273 0.0423 0.2278 0.04 0.2273 0.0364 0.2283 0.0349 0.2296 0.0319 0.2307 0.0295 0.2307 0.0267 0.2313 0.0243 0.2337 0.0215 0.2341 0.0191 0.2342 0.0163 0.2348 0.0144 0.2377 0.0116 0.2359 0.0093 0.2376 0.0058 0.2389 0.0041 0.2395 0.0011 0.3338 -0.0017 0.3311 -0.0052 0.3298 -0.0093 0.3287 -0.0122 0.3263 -0.0162 0.3258 -0.0198 0.324 -0.0231 0.3235 -0.0273 0.3212 -0.0295 0.3194 -0.0342 0.3188 -0.0377 0.3177 -0.0412 0.3166 -0.0446 0.3141 -0.0481 0.3125 -0.0516 0.3119 -0.0562 0.3112 -0.0586 0.3084 -0.0626 0.3072 -0.0655 0.3067 -0.0701 0.305 -0.073 0.3037 -0.0766 0.302 -0.0806 0.3015 -0.084 0.2997 -0.087 0.2979 -0.091 0.2968 -0.0945 0.2963 -0.0985 0.2945 -0.1009 0.2921 -0.1055 0.2922 -0.109 0.2915 -0.1125 0.2888 -0.1153 0.288 -0.12 0.2864 -0.1229 0.2864 -0.1269 0.2846 -0.1299 0.2841 -0.1345 0.2823 -0.1368 0.2817 -0.1414 0.28 -0.1444 0.28 -0.1484 0.2776 -0.1513 0.2772 -0.1559 0.2759 -0.1588 0.2747 -0.163 0.2742 -0.1663 0.2731 -0.1704 0.2713 -0.1734 0.2708 -0.1768 0.2689 -0.1809 0.269 -0.1849 0.2677 -0.1878 0.2662 -0.1919 0.2649 -0.1947 0.2643 -0.2001 0.2632 -0.2016 0.2615 -0.2064 0.2608 -0.2104 0.2597 -0.2134 0.2592 -0.2174 0.2579 -0.2214 0.2568 -0.2249 0.524 -0.4685 1.8243 0 0 10.4543 -0.8202 0.3593 -0.258 0.1137 -0.2557 0.1131zm75.5202 3.8932l-9.4299 0 0 -46.0932 -14.4378 30.3851 -5.7268 0 -14.3202 -30.3579 0 46.066 -8.9701 0 0 -59.0772 11.9028 0 14.7011 30.6397 14.2192 -30.6397 12.0617 0 0 59.0772zm51.9776 -3.8932l-0.265 0.1165 -0.481 0.215 -0.2429 0.1096 -0.2389 0.1072 -0.2359 0.1072 -0.2324 0.1061 -0.2302 0.1055 -0.2261 0.1043 -0.2237 0.1032 -0.2197 0.1021 -0.2169 0.102 -0.2162 0.1009 -0.2243 0.1043 -0.2365 0.1067 -0.2435 0.1061 -0.2504 0.1066 -0.2591 0.1073 -0.2673 0.1072 -0.2748 0.1079 -0.2828 0.1077 -0.2905 0.1085 -0.2991 0.109 -0.3067 0.1095 -0.3142 0.1096 -0.3223 0.1101 -0.331 0.1107 -0.3386 0.1113 -0.35 0.1119 -0.3044 0.0934 -0.3055 0.0915 -0.309 0.0893 -0.3107 0.087 -0.3136 0.0857 -0.3176 0.0842 -0.3212 0.0822 -0.3224 0.08 -0.3257 0.0788 -0.3299 0.0771 -0.3328 0.0754 -0.335 0.0737 -0.3385 0.0719 -0.3414 0.0707 -0.3455 0.0684 -0.3485 0.0672 -0.357 0.0649 -0.3629 0.0603 -0.3664 0.0568 -0.3704 0.0516 -0.3745 0.0487 -0.3785 0.0435 -0.3832 0.04 -0.3867 0.0348 -0.3913 0.0319 -0.3953 0.0266 -0.3995 0.0232 -0.4028 0.0186 -0.4081 0.015 -0.4121 0.0099 -0.4163 0.0063 -0.4192 0.0019 -0.3964 -0.0013 -0.3948 -0.0058 -0.3924 -0.0086 -0.3896 -0.0123 -0.3878 -0.0155 -0.3855 -0.0192 -0.3843 -0.0226 -0.3809 -0.0267 -0.3791 -0.0295 -0.3774 -0.0331 -0.3757 -0.0371 -0.3721 -0.04 -0.3704 -0.044 -0.3693 -0.047 -0.3664 -0.051 -0.3634 -0.0551 -0.3623 -0.0574 -0.3606 -0.0614 -0.3583 -0.065 -0.3548 -0.0689 -0.3541 -0.0719 -0.3519 -0.0754 -0.3496 -0.0794 -0.346 -0.0829 -0.345 -0.0858 -0.3425 -0.0899 -0.3414 -0.0933 -0.3375 -0.0973 -0.3362 -0.0998 -0.3345 -0.1043 -0.3322 -0.1078 -0.3293 -0.1113 -0.3292 -0.1148 -0.3263 -0.12 -0.3241 -0.1235 -0.3205 -0.1281 -0.3188 -0.1316 -0.316 -0.1362 -0.3136 -0.1397 -0.3102 -0.1437 -0.3078 -0.1479 -0.306 -0.1524 -0.3038 -0.156 -0.2997 -0.1606 -0.298 -0.1641 -0.2944 -0.1686 -0.2923 -0.1722 -0.2886 -0.1768 -0.2869 -0.1797 -0.2841 -0.1849 -0.2824 -0.1884 -0.2782 -0.1925 -0.2759 -0.1965 -0.2736 -0.2011 -0.2714 -0.2046 -0.2671 -0.2087 -0.265 -0.2122 -0.262 -0.2169 -0.2603 -0.2202 -0.2568 -0.2255 -0.2545 -0.2284 -0.251 -0.2331 -0.2487 -0.2365 -0.2452 -0.2406 -0.2382 -0.2388 -0.236 -0.2446 -0.2324 -0.2481 -0.2296 -0.2528 -0.226 -0.2562 -0.2221 -0.2608 -0.2192 -0.2638 -0.2156 -0.2684 -0.2127 -0.2719 -0.2087 -0.2759 -0.2063 -0.2806 -0.2018 -0.2841 -0.1988 -0.2875 -0.1954 -0.2921 -0.1925 -0.2957 -0.1878 -0.2991 -0.1855 -0.3026 -0.182 -0.3078 -0.1792 -0.3108 -0.175 -0.3153 -0.1716 -0.3182 -0.1687 -0.3235 -0.1652 -0.3258 -0.1611 -0.3304 -0.1589 -0.3339 -0.1547 -0.338 -0.152 -0.3414 -0.1484 -0.3455 -0.1448 -0.3484 -0.1421 -0.3537 -0.1379 -0.357 -0.1351 -0.3612 -0.1316 -0.3646 -0.1275 -0.3698 -0.1236 -0.3728 -0.1187 -0.3762 -0.1154 -0.3797 -0.1101 -0.3838 -0.1067 -0.3866 -0.102 -0.3901 -0.098 -0.3937 -0.0939 -0.3977 -0.0893 -0.4006 -0.0852 -0.4045 -0.0812 -0.4069 -0.0765 -0.4111 -0.073 -0.4151 -0.0685 -0.4179 -0.0643 -0.4209 -0.0602 -0.4249 -0.0563 -0.4284 -0.0516 -0.4319 -0.0476 -0.4347 -0.0434 -0.4394 -0.0395 -0.4417 -0.0347 -0.4459 -0.0313 -0.4486 -0.0267 -0.4528 -0.0226 -0.4562 -0.0185 -0.4591 -0.0146 -0.4626 -0.0097 -0.4667 -0.0071 -0.4695 -0.0011 -0.4736 0.0011 -0.4486 0.0064 -0.4465 0.0093 -0.444 0.0145 -0.4411 0.0174 -0.4383 0.022 -0.4353 0.0261 -0.4319 0.0296 -0.4301 0.0336 -0.4261 0.0382 -0.4249 0.0413 -0.4209 0.0463 -0.4185 0.0493 -0.4151 0.0545 -0.4133 0.058 -0.4099 0.062 -0.4075 0.0655 -0.4034 0.0701 -0.4017 0.0736 -0.3983 0.0788 -0.3959 0.0818 -0.3925 0.0864 -0.3902 0.0898 -0.3872 0.0951 -0.3843 0.098 -0.3815 0.1025 -0.3791 0.1062 -0.375 0.1107 -0.3734 0.1148 -0.3698 0.1188 -0.3675 0.1229 -0.3641 0.1275 -0.3611 0.1299 -0.3571 0.1345 -0.3548 0.1373 -0.3507 0.1415 -0.3472 0.1449 -0.3438 0.1484 -0.342 0.1525 -0.3369 0.1559 -0.3344 0.1594 -0.3299 0.1629 -0.3275 0.1664 -0.3246 0.171 -0.3212 0.1739 -0.3171 0.1774 -0.3136 0.1815 -0.3112 0.1854 -0.3078 0.1885 -0.3027 0.1919 -0.3008 0.1958 -0.2968 0.2001 -0.2939 0.2029 -0.2899 0.2069 -0.2869 0.2104 -0.2835 0.2145 -0.28 0.2174 -0.2759 0.2215 -0.2731 0.2249 -0.2695 0.2289 -0.2661 0.2319 -0.262 0.236 -0.2597 0.2393 -0.2551 0.2436 -0.2522 0.2382 -0.2406 0.2417 -0.2371 0.2447 -0.2335 0.2481 -0.2307 0.251 -0.2255 0.2545 -0.2238 0.2574 -0.2191 0.2602 -0.2162 0.2638 -0.2117 0.2661 -0.2087 0.2695 -0.2046 0.2731 -0.2017 0.2753 -0.1971 0.2788 -0.1942 0.2824 -0.1907 0.2852 -0.1867 0.2875 -0.1831 0.291 -0.1798 0.2939 -0.1756 0.2974 -0.1721 0.2991 -0.1682 0.3026 -0.1652 0.306 -0.1612 0.3091 -0.1582 0.3118 -0.1536 0.3143 -0.1508 0.3182 -0.1467 0.3211 -0.1437 0.3235 -0.1391 0.3263 -0.1357 0.3293 -0.1322 0.3333 -0.1286 0.3351 -0.1252 0.3374 -0.1206 0.3391 -0.1171 0.3426 -0.1131 0.3444 -0.1084 0.3461 -0.1055 0.3478 -0.1002 0.3512 -0.098 0.353 -0.0922 0.3549 -0.0893 0.357 -0.0852 0.3594 -0.0811 0.3612 -0.0771 0.364 -0.0731 0.3658 -0.0689 0.3681 -0.0655 0.3699 -0.0609 0.3727 -0.0574 0.374 -0.0534 0.3767 -0.0492 0.3786 -0.0453 0.3809 -0.0417 0.3831 -0.0371 0.3849 -0.0342 0.3873 -0.029 0.3889 -0.026 0.3919 -0.0215 0.3936 -0.018 0.3954 -0.0133 0.3976 -0.0099 0.4 -0.0064 0.4023 -0.0017 0.2956 0.0012 0.2957 0.0035 0.2945 0.0058 0.2951 0.0081 0.295 0.0098 0.2951 0.0122 0.2939 0.0145 0.2956 0.0168 0.2951 0.0191 0.2939 0.0215 0.2945 0.0231 0.2956 0.0256 0.2951 0.0283 0.2945 0.0302 0.2939 0.0325 0.2956 0.0342 0.2945 0.0377 0.2945 0.0388 0.2939 0.0417 0.2944 0.0435 0.2946 0.0458 0.2939 0.0482 0.2933 0.0498 0.2951 0.0527 0.2944 0.0551 0.2934 0.0569 0.2938 0.0584 0.2946 0.0615 0.2939 0.0638 0.2939 0.0661 0.2933 0.0677 0.2956 0.0702 0.2962 0.0743 0.2975 0.0771 0.2996 0.0799 0.3021 0.0836 0.3037 0.0875 0.3055 0.0898 0.3067 0.0939 0.3101 0.0969 0.3107 0.1002 0.3131 0.1038 0.3141 0.1066 0.3166 0.1101 0.3188 0.1137 0.32 0.1171 0.3217 0.12 0.3246 0.1229 0.3258 0.1275 0.3281 0.1298 0.3293 0.1334 0.3316 0.1368 0.3333 0.1408 0.3351 0.1426 0.3362 0.1467 0.3403 0.1501 0.3409 0.1537 0.3425 0.156 0.3438 0.1599 0.3478 0.163 0.3484 0.1669 0.3496 0.1693 0.3524 0.1727 0.8684 0.4313 0 10.5632 -1.8428 0 -0.5514 -0.4568 -0.2892 -0.2359 -0.2893 -0.2319 -0.2887 -0.2279 -0.2886 -0.2232 -0.2882 -0.2191 -0.2886 -0.2156 -0.2869 -0.2104 -0.2876 -0.2064 -0.2875 -0.2024 -0.2864 -0.1982 -0.2864 -0.1942 -0.2864 -0.1896 -0.2858 -0.1861 -0.2857 -0.1814 -0.2841 -0.1768 -0.2851 -0.1721 -0.2852 -0.1693 -0.2841 -0.1652 -0.2841 -0.16 -0.2835 -0.156 -0.284 -0.1524 -0.2829 -0.1484 -0.2817 -0.1438 -0.2824 -0.1386 -0.2834 -0.1362 -0.2818 -0.1322 -0.2811 -0.1275 -0.2811 -0.1228 -0.2812 -0.1195 -0.2805 -0.1153 -0.2789 -0.1102 -0.2806 -0.1067 -0.2823 -0.1038 -0.284 -0.1002 -0.2846 -0.0974 -0.2858 -0.0934 -0.287 -0.0898 -0.2887 -0.0869 -0.2893 -0.0835 -0.2898 -0.0794 -0.2928 -0.0771 -0.2938 -0.0731 -0.294 -0.0695 -0.2962 -0.0661 -0.2973 -0.0632 -0.2985 -0.0597 -0.2987 -0.0562 -0.3014 -0.0522 -0.3026 -0.0499 -0.3037 -0.0458 -0.305 -0.0423 -0.3061 -0.0394 -0.3078 -0.0359 -0.3095 -0.0325 -0.3095 -0.029 -0.3114 -0.0255 -0.313 -0.022 -0.3147 -0.0192 -0.3154 -0.0156 -0.3166 -0.0116 -0.3188 -0.0087 -0.32 -0.0052 -0.3205 -0.0018 -0.2609 0.0013 -0.2597 0.0039 -0.2574 0.0071 -0.255 0.0092 -0.2551 0.0122 -0.2522 0.0139 -0.2504 0.0179 -0.2487 0.0192 -0.247 0.0226 -0.2451 0.0249 -0.243 0.0279 -0.2417 0.0301 -0.2394 0.033 -0.2383 0.0355 -0.2353 0.0381 -0.2342 0.0407 -0.2325 0.0434 -0.2307 0.0458 -0.2289 0.0487 -0.2273 0.0504 -0.2261 0.0545 -0.2238 0.0557 -0.2219 0.0591 -0.2197 0.0609 -0.2186 0.0643 -0.2174 0.0661 -0.2145 0.069 -0.2133 0.0719 -0.2116 0.0736 -0.2092 0.0771 -0.2087 0.0794 -0.2029 0.08 -0.4105 0.1734 -0.4023 0.1826 -0.3964 0.1947 -0.3908 0.2058 -0.3855 0.2174 -0.3797 0.229 -0.3745 0.24 -0.3692 0.2522 -0.3641 0.2643 -0.3588 0.2748 -0.3536 0.288 -0.3479 0.2992 -0.3437 0.3113 -0.338 0.3235 -0.3327 0.3344 -0.3264 0.3462 -0.3095 0.3472 -0.3003 0.3576 -0.2921 0.3698 -0.2835 0.3815 -0.2759 0.3936 -0.2668 0.404 -0.2585 0.4169 -0.2504 0.4283 -0.2423 0.4412 -0.2336 0.4528 -0.2255 0.4649 -0.2163 0.4764 -0.2087 0.4893 -0.1994 0.5015 -0.1913 0.5135 -0.1837 0.5282 -0.087 0.2643 -0.0847 0.2678 -0.0823 0.2719 -0.0793 0.2748 -0.0766 0.2771 -0.0742 0.28 -0.0707 0.2823 -0.0684 0.2852 -0.0655 0.288 -0.0626 0.2911 -0.0603 0.2933 -0.0574 0.2968 -0.0545 0.2997 -0.0516 0.3014 -0.0487 0.3044 -0.0463 0.3078 -0.0435 0.3108 -0.0412 0.313 -0.0377 0.3159 -0.0347 0.3188 -0.0325 0.3212 -0.0295 0.3235 -0.0267 0.328 -0.0238 0.3293 -0.0208 0.3334 -0.0187 0.3356 -0.0155 0.3374 -0.0123 0.3414 -0.0104 0.3437 -0.0064 0.3461 -0.0046 0.349 -0.0012 0.3525 0.0012 0.3681 0.0046 0.3652 0.0082 0.3618 0.011 0.3576 0.0139 0.3547 0.0168 0.3513 0.0203 0.3473 0.0237 0.3443 0.0261 0.3409 0.0297 0.3374 0.0318 0.3339 0.0359 0.3298 0.0389 0.3269 0.0418 0.3229 0.0446 0.3194 0.048 0.3166 0.0511 0.3136 0.0539 0.3096 0.0568 0.306 0.0603 0.302 0.0626 0.2992 0.066 0.2956 0.0691 0.2916 0.0724 0.2887 0.0754 0.2857 0.0777 0.2813 0.0811 0.2782 0.0841 0.2747 0.0869 0.2719 0.0898 0.2673 0.0928 0.2643 0.0963 0.2597 0.2016 0.5229 0.2082 0.5078 0.2144 0.4939 0.2216 0.4818 0.2283 0.4683 0.2348 0.4551 0.2412 0.4423 0.2486 0.4296 0.2546 0.4161 0.2613 0.4036 0.2673 0.3912 0.2742 0.378 0.28 0.3652 0.2869 0.3525 0.294 0.3403 0.3003 0.328 0.3211 0.3316 0.3287 0.3206 0.335 0.3102 0.3415 0.2985 0.3477 0.2875 0.3543 0.276 0.3606 0.2654 0.3681 0.2539 0.3733 0.2435 0.3808 0.2319 0.3873 0.2214 0.3941 0.2099 0.4012 0.2 0.407 0.1883 0.415 0.1781 0.4267 0.1686 0.2115 0.0795 0.2152 0.0776 0.2156 0.0748 0.2174 0.0731 0.2173 0.0701 0.2192 0.0672 0.2185 0.0656 0.2203 0.0614 0.2214 0.0608 0.2215 0.0575 0.222 0.0545 0.2238 0.0521 0.2243 0.0504 0.2237 0.047 0.2256 0.0441 0.2272 0.0423 0.2272 0.04 0.2279 0.0364 0.2278 0.0349 0.2301 0.0319 0.2307 0.0295 0.2307 0.0267 0.2313 0.0243 0.2337 0.0215 0.2342 0.0191 0.2341 0.0163 0.2348 0.0144 0.2371 0.0116 0.2365 0.0093 0.2378 0.0058 0.2387 0.0041 0.2395 0.0011 0.3332 -0.0017 0.3317 -0.0052 0.3298 -0.0093 0.3287 -0.0122 0.3264 -0.0162 0.3258 -0.0198 0.3235 -0.0231 0.324 -0.0273 0.3211 -0.0295 0.3194 -0.0342 0.3188 -0.0377 0.3177 -0.0412 0.316 -0.0446 0.3142 -0.0481 0.313 -0.0516 0.3119 -0.0562 0.3112 -0.0586 0.3085 -0.0626 0.3072 -0.0655 0.3067 -0.0701 0.3049 -0.073 0.3037 -0.0766 0.302 -0.0806 0.3015 -0.084 0.2992 -0.087 0.2985 -0.091 0.2962 -0.0945 0.2962 -0.0985 0.2945 -0.1009 0.2922 -0.1055 0.2915 -0.109 0.2916 -0.1125 0.2888 -0.1153 0.288 -0.12 0.2876 -0.1229 0.2858 -0.1269 0.2846 -0.1299 0.284 -0.1345 0.2824 -0.1368 0.2817 -0.1414 0.2805 -0.1444 0.2795 -0.1484 0.2777 -0.1513 0.277 -0.1559 0.2765 -0.1588 0.2748 -0.163 0.2736 -0.1663 0.2731 -0.1704 0.2719 -0.1734 0.2707 -0.1768 0.2689 -0.1809 0.269 -0.1849 0.2679 -0.1878 0.2654 -0.1919 0.2655 -0.1947 0.2644 -0.2001 0.2631 -0.2016 0.2615 -0.2064 0.2609 -0.2104 0.2597 -0.2134 0.2591 -0.2174 0.2579 -0.2214 0.2569 -0.2249 0.524 -0.4685 1.8237 0 0 10.4543 -0.8197 0.3593 -0.2585 0.1137 -0.2551 0.1131z"/>
  <path class="fil1 str0" d="M129.071 129.948c27.8624,-27.8583 40.52,-61.2551 30.8217,-78.4812 8.7024,15.6766 -1.5918,44.6324 -25.2781,68.3151 -26.1505,26.1471 -58.7229,35.9753 -72.7562,21.9432 -14.0302,-14.0309 -4.2038,-46.6085 21.9467,-72.7522 23.6845,-23.6903 52.6431,-33.9746 68.3127,-25.2786 -17.2249,-9.7012 -50.6223,2.9604 -78.4765,30.8194 -30.489,30.4895 -42.7976,67.6143 -27.4879,82.9164 15.3091,15.3133 52.4362,3.004 82.9176,-27.4821z"/>
  <path class="fil1 str0" d="M101.342 141.391c39.3983,0 71.9602,-14.6599 77.2842,-33.7035 -4.9297,17.2378 -32.6808,30.4364 -66.1796,30.4364 -36.9792,0 -66.9603,-16.0837 -66.9603,-35.9336 0,-19.8441 29.9811,-35.927 66.9603,-35.927 33.4988,0 61.2499,13.1996 66.1796,30.4362 -5.324,-19.0452 -37.8859,-33.7022 -77.2842,-33.7022 -43.1129,0 -78.0678,17.5467 -78.0678,39.193 -0.0035,21.651 34.9549,39.2007 78.0678,39.2007z"/>
  <path class="fil1 str0" d="M73.6419 129.874c27.8536,27.8583 61.251,40.5165 78.4759,30.8171 -15.6696,8.6965 -44.6282,-1.5866 -68.3127,-25.2769 -26.1505,-26.1477 -35.9769,-58.7242 -21.9467,-72.7585 14.0333,-14.0263 46.6103,-4.2045 72.7562,21.9402 23.6863,23.6921 33.9805,52.6495 25.2781,68.3192 9.6983,-17.2343 -2.9593,-50.6176 -30.8217,-78.4795 -30.4814,-30.4815 -67.6067,-42.7942 -82.913,-27.4798 -15.3091,15.2987 -3.0034,52.4217 27.4839,82.9182z"/>
  <g id="_133829080">
   <path id="_133294024" class="fil2" d="M208.51 69.449l-3.3482 0 -6.9664 -9.0433 -1.6607 0 0 9.0433 -2.625 0 0 -19.7432 2.625 0 0 8.8991c1.0323,-0.0371 1.8564,-0.2947 2.4581,-0.783 0.6058,-0.4842 1.1003,-1.1868 1.4794,-2.0955 0.1586,-0.3997 0.3029,-0.7747 0.4306,-1.1312 0.1257,-0.3585 0.2308,-0.6614 0.3111,-0.9107 0.5296,-1.5123 1.2095,-2.5529 2.0275,-3.1236 0.8242,-0.5687 1.9657,-0.8551 3.4224,-0.8551l0.8098 0 0 2.3489 -0.6594 0c-1.0817,0 -1.8379,0.2081 -2.2685,0.6305 -0.4348,0.4203 -0.8324,1.2116 -1.1951,2.3798 -0.3626,1.1683 -0.7685,2.0234 -1.2218,2.5673 -0.4471,0.5419 -0.9911,1.022 -1.6298,1.4341l8.011 10.3826zm38.5427 -17.4746c0.75,0.8633 1.331,1.9409 1.7472,3.2225 0.4162,1.2795 0.6243,2.7424 0.6243,4.3846 0,1.6031 -0.204,3.0474 -0.6119,4.3373 -0.4059,1.2939 -0.9952,2.3757 -1.7596,3.2493 -0.8057,0.9189 -1.7473,1.5968 -2.8208,2.0357 -1.0714,0.4389 -2.2582,0.6573 -3.5481,0.6573 -1.3351,0 -2.5384,-0.2267 -3.6078,-0.6738 -1.0673,-0.4533 -1.9863,-1.1229 -2.7548,-2.0192 -0.7603,-0.8736 -1.3455,-1.9513 -1.7514,-3.237 -0.408,-1.2795 -0.612,-2.728 -0.612,-4.3496 0,-1.6607 0.204,-3.1174 0.6161,-4.3722 0.4121,-1.2569 0.9993,-2.3345 1.7596,-3.2349 0.7562,-0.8778 1.6752,-1.5433 2.7528,-1.9966 1.0714,-0.4574 2.2727,-0.6841 3.5975,-0.6841 1.3455,0 2.557,0.2349 3.6346,0.7026 1.0777,0.4698 1.9863,1.1271 2.7343,1.9781zm-0.3627 7.6071c0,-1.3084 -0.1401,-2.4622 -0.4244,-3.4718 -0.2823,-1.0076 -0.68,-1.8421 -1.191,-2.5076 -0.5254,-0.6779 -1.1538,-1.1889 -1.8915,-1.5288 -0.7376,-0.34 -1.5659,-0.511 -2.4849,-0.511 -0.956,0 -1.7884,0.1669 -2.4993,0.4965 -0.7108,0.3318 -1.3434,0.8469 -1.8915,1.5433 -0.5213,0.6758 -0.9189,1.5165 -1.1991,2.5364 -0.2761,1.0138 -0.4163,2.1635 -0.4163,3.443 0,2.5941 0.5419,4.5763 1.6299,5.9485 1.0899,1.3743 2.5467,2.0625 4.3763,2.0625 1.8277,0 3.2844,-0.6882 4.3682,-2.0625 1.0817,-1.3722 1.6236,-3.3544 1.6236,-5.9485zm40.8916 -3.9231c0,0.8592 -0.1545,1.669 -0.4574,2.4355 -0.307,0.7644 -0.7294,1.4155 -1.2672,1.9553 -0.6841,0.6697 -1.4794,1.1807 -2.4045,1.5248 -0.919,0.3441 -2.0811,0.5151 -3.4884,0.5151l-2.2273 0 0 7.3599 -2.625 0 0 -19.7432 4.9595 0c1.1683,0 2.1635,0.0948 2.9876,0.2905 0.8201,0.1937 1.5495,0.511 2.1738,0.9417 0.7335,0.5068 1.3084,1.1435 1.7246,1.9182 0.4162,0.7748 0.6243,1.7061 0.6243,2.8022zm-2.7342 0.068c0,-0.6799 -0.1174,-1.2733 -0.3523,-1.7802 -0.2308,-0.5007 -0.5893,-0.9128 -1.0694,-1.2301 -0.4121,-0.2761 -0.8963,-0.4718 -1.4526,-0.5831 -0.5522,-0.1133 -1.2404,-0.1731 -2.0584,-0.1731l-2.1779 0 0 7.8895 1.7926 0c1.0591,0 1.9183,-0.0866 2.5714,-0.2576 0.6552,-0.1731 1.1992,-0.4801 1.634,-0.9231 0.3873,-0.3997 0.6696,-0.8283 0.8447,-1.3001 0.1772,-0.4657 0.2679,-1.0137 0.2679,-1.6422zm42.3895 13.7226l-2.625 0 0 -17.4066 -9.0886 0 0 17.4066 -2.625 0 0 -19.7432 14.3386 0 0 19.7432zm40.7824 -17.4746c0.75,0.8633 1.3311,1.9409 1.7473,3.2225 0.4162,1.2795 0.6243,2.7424 0.6243,4.3846 0,1.6031 -0.204,3.0474 -0.612,4.3373 -0.4059,1.2939 -0.9952,2.3757 -1.7596,3.2493 -0.8056,0.9189 -1.7472,1.5968 -2.8207,2.0357 -1.0715,0.4389 -2.2583,0.6573 -3.5481,0.6573 -1.3352,0 -2.5385,-0.2267 -3.6079,-0.6738 -1.0673,-0.4533 -1.9862,-1.1229 -2.7548,-2.0192 -0.7603,-0.8736 -1.3454,-1.9513 -1.7514,-3.237 -0.4079,-1.2795 -0.6119,-2.728 -0.6119,-4.3496 0,-1.6607 0.204,-3.1174 0.6161,-4.3722 0.4121,-1.2569 0.9993,-2.3345 1.7596,-3.2349 0.7562,-0.8778 1.6751,-1.5433 2.7527,-1.9966 1.0715,-0.4574 2.2727,-0.6841 3.5976,-0.6841 1.3454,0 2.557,0.2349 3.6346,0.7026 1.0776,0.4698 1.9863,1.1271 2.7342,1.9781zm-0.3626 7.6071c0,-1.3084 -0.1401,-2.4622 -0.4245,-3.4718 -0.2823,-1.0076 -0.6799,-1.8421 -1.1909,-2.5076 -0.5254,-0.6779 -1.1539,-1.1889 -1.8915,-1.5288 -0.7376,-0.34 -1.5659,-0.511 -2.4849,-0.511 -0.956,0 -1.7885,0.1669 -2.4993,0.4965 -0.7109,0.3318 -1.3434,0.8469 -1.8915,1.5433 -0.5213,0.6758 -0.919,1.5165 -1.1992,2.5364 -0.2761,1.0138 -0.4162,2.1635 -0.4162,3.443 0,2.5941 0.5419,4.5763 1.6298,5.9485 1.09,1.3743 2.5467,2.0625 4.3764,2.0625 1.8276,0 3.2844,-0.6882 4.3681,-2.0625 1.0818,-1.3722 1.6237,-3.3544 1.6237,-5.9485zm40.8916 -3.9231c0,0.8592 -0.1546,1.669 -0.4575,2.4355 -0.307,0.7644 -0.7294,1.4155 -1.2671,1.9553 -0.6841,0.6697 -1.4794,1.1807 -2.4046,1.5248 -0.9189,0.3441 -2.081,0.5151 -3.4883,0.5151l-2.2273 0 0 7.3599 -2.625 0 0 -19.7432 4.9594 0c1.1683,0 2.1635,0.0948 2.9877,0.2905 0.82,0.1937 1.5494,0.511 2.1738,0.9417 0.7335,0.5068 1.3083,1.1435 1.7245,1.9182 0.4163,0.7748 0.6244,1.7061 0.6244,2.8022zm-2.7342 0.068c0,-0.6799 -0.1175,-1.2733 -0.3524,-1.7802 -0.2308,-0.5007 -0.5893,-0.9128 -1.0694,-1.2301 -0.412,-0.2761 -0.8962,-0.4718 -1.4526,-0.5831 -0.5522,-0.1133 -1.2404,-0.1731 -2.0584,-0.1731l-2.1778 0 0 7.8895 1.7925 0c1.0591,0 1.9183,-0.0866 2.5715,-0.2576 0.6552,-0.1731 1.1992,-0.4801 1.6339,-0.9231 0.3874,-0.3997 0.6697,-0.8283 0.8448,-1.3001 0.1772,-0.4657 0.2679,-1.0137 0.2679,-1.6422zm25.9183 13.7226l6.6593 -19.7432 3.2308 0 6.6573 19.7432 -2.7692 0 -1.7926 -5.5179 -7.5454 0 -1.7864 5.5179 -2.6538 0zm11.2624 -7.7576l-3.0557 -9.3049 -3.0371 9.3049 6.0928 0zm46.0406 12.2246l-2.4931 0 0 -4.467 -13.5784 0 0 -19.7432 2.6251 0 0 17.4355 8.9526 0 0 -17.4355 2.625 0 0 17.4355 1.8688 0 0 6.7747zm39.5379 -4.467l-2.6126 0 0 -15.6738 -8.93 15.6738 -2.6518 0 0 -19.7432 2.6106 0 0 15.4204 8.8125 -15.4204 2.7713 0 0 19.7432zm39.4142 0l-2.625 0 0 -7.8482 -2.9855 0 -5.8991 7.8482 -3.1587 0 6.3421 -8.2459c-1.3269,-0.4533 -2.3551,-1.1456 -3.0824,-2.0872 -0.7294,-0.9417 -1.0962,-2.2047 -1.0962,-3.7892 0,-1.0034 0.2081,-1.8729 0.6284,-2.6023 0.4224,-0.7336 0.9788,-1.3393 1.6669,-1.8235 0.6285,-0.443 1.362,-0.7521 2.1985,-0.9272 0.8428,-0.1772 1.77,-0.2679 2.7878,-0.2679l5.2232 0 0 19.7432zm-2.625 -10.0344l0 -7.4547 -2.7321 0c-0.7603,0 -1.3723,0.0495 -1.8297,0.1443 -0.4615,0.1009 -0.8819,0.2761 -1.263,0.5295 -0.4059,0.2761 -0.7233,0.6614 -0.954,1.1559 -0.2308,0.4966 -0.3441,1.0405 -0.3441,1.6339 0,0.7047 0.0803,1.294 0.2431,1.7638 0.1648,0.4656 0.4306,0.8839 0.7933,1.2445 0.3976,0.3894 0.8819,0.6532 1.4567,0.783 0.5749,0.1318 1.2445,0.1998 2.0048,0.1998l2.625 0z"/>
   <path id="_133134376" class="fil3" d="M243.845 114.765l-0.0028 0.4997 -0.0105 0.4957 -0.0168 0.4933 -0.0243 0.491 -0.0302 0.4881 -0.0377 0.4852 -0.0446 0.4829 -0.0516 0.4794 -0.0574 0.4771 -0.0655 0.4747 -0.0719 0.4719 -0.0794 0.4684 -0.0852 0.4655 -0.0928 0.4637 -0.0991 0.4597 -0.1066 0.4568 -0.1131 0.4551 -0.12 0.4522 -0.1269 0.4492 -0.1345 0.4458 -0.1403 0.4441 -0.1478 0.4399 -0.1548 0.4371 -0.1617 0.4342 -0.1676 0.4319 -0.1756 0.4284 -0.182 0.4255 -0.189 0.4226 -0.1954 0.4203 -0.2029 0.4168 -0.2098 0.4144 -0.2163 0.4099 -0.2214 0.4046 -0.2255 0.4006 -0.2307 0.3947 -0.2359 0.389 -0.24 0.3832 -0.2447 0.378 -0.2492 0.3727 -0.2539 0.3658 -0.2586 0.3617 -0.2632 0.3554 -0.2684 0.3501 -0.2724 0.3438 -0.2777 0.3391 -0.2823 0.3333 -0.2864 0.3275 -0.291 0.3206 -0.2956 0.3165 -0.3009 0.3102 -0.3049 0.3055 -0.3101 0.2985 -0.3142 0.2933 -0.3194 0.2875 -0.3235 0.2818 -0.3287 0.2759 -0.3322 0.2701 -0.3373 0.265 -0.3426 0.2585 -0.3467 0.2528 -0.3501 0.2469 -0.356 0.2417 -0.3605 0.236 -0.3635 0.2284 -0.2556 0.1565 -0.2569 0.1525 -0.2591 0.1507 -0.2603 0.1466 -0.2614 0.1444 -0.2643 0.1414 -0.2661 0.1397 -0.2673 0.1357 -0.2689 0.1333 -0.2713 0.131 -0.2731 0.1281 -0.2747 0.1252 -0.276 0.1224 -0.2782 0.12 -0.2806 0.1171 -0.2812 0.1142 -0.2828 0.1113 -0.2853 0.1089 -0.2875 0.1061 -0.2887 0.1032 -0.2904 0.1003 -0.2922 0.098 -0.2939 0.0956 -0.2962 0.0922 -0.2968 0.0898 -0.2997 0.087 -0.3014 0.084 -0.3021 0.0812 -0.3043 0.0788 -0.3066 0.076 -0.3079 0.073 -0.3095 0.0702 -0.3131 0.0684 -0.3205 0.0661 -0.3258 0.0637 -0.331 0.0615 -0.3368 0.0591 -0.3432 0.0574 -0.349 0.0545 -0.3536 0.0521 -0.3594 0.0511 -0.3664 0.0481 -0.3715 0.0464 -0.3774 0.0434 -0.3826 0.0418 -0.389 0.0394 -0.3948 0.0371 -0.4 0.0348 -0.4057 0.0336 -0.4128 0.0313 -0.4174 0.0284 -0.4237 0.0267 -0.429 0.0243 -0.4353 0.022 -0.4412 0.0203 -0.4469 0.018 -0.4534 0.0162 -0.4585 0.0134 -0.4643 0.0116 -0.4702 0.0092 -0.4759 0.0081 -0.4823 0.0053 -0.4881 0.0029 -0.4933 0.0011 -15.3926 0 0 -59.0771 15.239 0 0.524 0.0017 0.5183 0.0035 0.5118 0.0064 0.5049 0.0081 0.4992 0.0104 0.4915 0.0133 0.4852 0.0157 0.4783 0.018 0.473 0.0208 0.4655 0.0221 0.4591 0.026 0.4522 0.0273 0.4464 0.0301 0.4394 0.0325 0.4324 0.0348 0.4267 0.0371 0.4202 0.04 0.4128 0.0417 0.4069 0.0447 0.3994 0.0469 0.3948 0.0499 0.3867 0.0516 0.3808 0.0544 0.3745 0.0569 0.3675 0.0591 0.3618 0.0614 0.3547 0.065 0.3484 0.066 0.3432 0.0696 0.3356 0.0719 0.3293 0.0742 0.3217 0.0765 0.316 0.0789 0.3113 0.0799 0.3084 0.0824 0.306 0.0834 0.3026 0.0858 0.3003 0.0876 0.2968 0.0892 0.2945 0.0911 0.2922 0.0939 0.2881 0.0945 0.2852 0.0968 0.2829 0.0985 0.28 0.1009 0.2771 0.1026 0.2736 0.1043 0.2713 0.1061 0.2695 0.1084 0.265 0.1102 0.2631 0.1124 0.2592 0.1131 0.2573 0.1165 0.2528 0.1171 0.2516 0.1194 0.2487 0.1217 0.2458 0.1235 0.2423 0.1258 0.2394 0.1269 0.2365 0.1293 0.2336 0.131 0.2313 0.1328 0.2278 0.1356 0.2273 0.138 0.3768 0.2394 0.3698 0.2435 0.3658 0.2487 0.3594 0.2527 0.3548 0.2586 0.3495 0.2626 0.345 0.2684 0.3385 0.273 0.3351 0.2782 0.3292 0.2829 0.3241 0.2881 0.3182 0.2928 0.3136 0.298 0.3084 0.3026 0.3032 0.3078 0.298 0.3118 0.2927 0.3183 0.2876 0.3223 0.2828 0.3275 0.2766 0.3316 0.2718 0.3368 0.2667 0.342 0.2614 0.3473 0.2557 0.3507 0.251 0.3565 0.2458 0.3612 0.2406 0.3657 0.2347 0.3705 0.2296 0.3756 0.2243 0.3803 0.2192 0.3849 0.2139 0.3896 0.2092 0.397 0.2018 0.4006 0.1959 0.4064 0.1884 0.4098 0.182 0.4145 0.1757 0.4185 0.1687 0.4232 0.1617 0.4273 0.1559 0.4318 0.1484 0.4371 0.1421 0.4406 0.135 0.4446 0.1293 0.4498 0.1217 0.4534 0.116 0.4579 0.1078 0.462 0.1026 0.4667 0.0956 0.4713 0.0887 0.4753 0.0818 0.4789 0.0759 0.484 0.069 0.4875 0.0626 0.4922 0.0551 0.4962 0.0498 0.5014 0.0424 0.505 0.0359 0.5095 0.029 0.513 0.0232 0.5177 0.0162 0.5217 0.0099 0.5264 0.0028 0.5298zm-9.773 -0.1142l-0.0017 -0.4081 -0.007 -0.4034 -0.011 -0.3989 -0.0157 -0.3953 -0.0203 -0.3902 -0.0243 -0.3866 -0.029 -0.3815 -0.0336 -0.3773 -0.0377 -0.3734 -0.0423 -0.3686 -0.0464 -0.3647 -0.0516 -0.36 -0.055 -0.3565 -0.0598 -0.3507 -0.0643 -0.3466 -0.069 -0.3438 -0.0724 -0.3385 -0.0777 -0.3339 -0.0818 -0.3299 -0.0858 -0.3264 -0.0898 -0.3205 -0.0945 -0.3171 -0.0991 -0.3131 -0.1032 -0.3084 -0.1073 -0.3049 -0.1113 -0.2991 -0.1165 -0.2956 -0.12 -0.2922 -0.1246 -0.2875 -0.1293 -0.2841 -0.1321 -0.2788 -0.1357 -0.2713 -0.2898 -0.5426 -0.3038 -0.5246 -0.3206 -0.5078 -0.3385 -0.4951 -0.3548 -0.4794 -0.3716 -0.4649 -0.3889 -0.4499 -0.4064 -0.4359 -0.4232 -0.422 -0.44 -0.407 -0.4579 -0.3936 -0.476 -0.3791 -0.4933 -0.3646 -0.5113 -0.3513 -0.5298 -0.3368 -0.5501 -0.3252 -0.4058 -0.2244 -0.4139 -0.2173 -0.4157 -0.2093 -0.4191 -0.2 -0.4226 -0.1913 -0.4255 -0.1826 -0.4289 -0.1733 -0.4313 -0.1652 -0.4342 -0.156 -0.4383 -0.1466 -0.4411 -0.1392 -0.4446 -0.1298 -0.4476 -0.1206 -0.4515 -0.1125 -0.4545 -0.1031 -0.4591 -0.0951 -0.229 -0.0435 -0.2371 -0.0435 -0.2388 -0.0417 -0.2412 -0.0406 -0.2452 -0.0388 -0.2481 -0.0377 -0.2516 -0.0365 -0.2545 -0.0354 -0.2562 -0.033 -0.2609 -0.0319 -0.2632 -0.0307 -0.266 -0.0296 -0.2696 -0.0278 -0.2736 -0.0267 -0.2759 -0.0249 -0.2783 -0.0238 -0.2811 -0.022 -0.2847 -0.0209 -0.2887 -0.0191 -0.291 -0.0186 -0.2933 -0.0162 -0.2968 -0.0151 -0.3003 -0.0139 -0.302 -0.0122 -0.3067 -0.0104 -0.3089 -0.0098 -0.3125 -0.0076 -0.3148 -0.0069 -0.3176 -0.0047 -0.3218 -0.0035 -0.3246 -0.0023 -0.3287 -0.0011 -6.2427 0 0 42.2799 6.2439 0 0.3403 -0.0006 0.3362 -0.0023 0.3327 -0.0035 0.331 -0.0058 0.3281 -0.0069 0.3247 -0.0081 0.3217 -0.0105 0.3194 -0.0116 0.3171 -0.0127 0.313 -0.0151 0.3113 -0.0162 0.3078 -0.018 0.3055 -0.0191 0.3021 -0.0209 0.2991 -0.022 0.2968 -0.0244 0.2939 -0.0249 0.291 -0.0272 0.2881 -0.0284 0.2852 -0.0302 0.2835 -0.0313 0.2788 -0.033 0.276 -0.0348 0.2741 -0.0365 0.2719 -0.0371 0.2673 -0.0394 0.2649 -0.0406 0.2626 -0.0429 0.2603 -0.0435 0.2562 -0.0452 0.2533 -0.0464 0.251 -0.0493 0.2481 -0.0492 0.2435 -0.0522 0.2429 -0.0545 0.2429 -0.0574 0.2406 -0.0597 0.2388 -0.0626 0.2377 -0.0649 0.2365 -0.0684 0.2365 -0.0702 0.233 -0.0724 0.2325 -0.0754 0.2319 -0.0783 0.2301 -0.08 0.2284 -0.0834 0.2272 -0.0852 0.2261 -0.0893 0.2261 -0.0904 0.2232 -0.0934 0.2214 -0.0956 0.2221 -0.0997 0.2202 -0.1003 0.2174 -0.1038 0.2174 -0.1061 0.2151 -0.1095 0.2162 -0.1119 0.2139 -0.1142 0.2116 -0.116 0.211 -0.1205 0.2099 -0.1212 0.2081 -0.1246 0.2063 -0.1264 0.2023 -0.1281 0.5073 -0.3339 0.4846 -0.3438 0.4684 -0.3553 0.451 -0.3681 0.4365 -0.3809 0.4191 -0.393 0.4035 -0.4052 0.3866 -0.4186 0.3722 -0.4301 0.3554 -0.4435 0.3391 -0.4556 0.3246 -0.4701 0.309 -0.4818 0.2921 -0.495 0.2777 -0.5084 0.2632 -0.5258 0.1235 -0.262 0.1206 -0.2696 0.1171 -0.2736 0.1124 -0.2788 0.1096 -0.2835 0.1049 -0.2875 0.1014 -0.2916 0.0974 -0.2968 0.0945 -0.3026 0.0899 -0.3055 0.0863 -0.3096 0.0818 -0.3153 0.0782 -0.3194 0.0748 -0.3241 0.0702 -0.3275 0.0661 -0.3333 0.0626 -0.3386 0.0585 -0.3426 0.0545 -0.3466 0.051 -0.3513 0.0464 -0.3565 0.0429 -0.36 0.0382 -0.3646 0.0342 -0.3705 0.0308 -0.3744 0.0261 -0.3792 0.0226 -0.3831 0.0185 -0.3884 0.0145 -0.3925 0.0099 -0.3971 0.0063 -0.4011 0.0012 -0.407zm51.6779 -20.3994l0.2041 0.2777 0.2005 0.2806 0.1977 0.2852 0.1931 0.2869 0.1901 0.2916 0.1867 0.2945 0.1837 0.2985 0.1791 0.3015 0.1769 0.3055 0.1727 0.3084 0.1693 0.3124 0.1658 0.3159 0.1623 0.3195 0.1582 0.3217 0.1554 0.3258 0.1519 0.3292 0.1484 0.3328 0.1443 0.3356 0.1415 0.3397 0.1379 0.3432 0.1339 0.3467 0.1305 0.3489 0.1281 0.3542 0.1229 0.3589 0.12 0.3629 0.1153 0.3663 0.1113 0.3704 0.1067 0.3739 0.1032 0.378 0.0985 0.3809 0.0951 0.3849 0.0904 0.3895 0.087 0.3925 0.0823 0.3965 0.0788 0.4006 0.0737 0.4046 0.0707 0.4075 0.0655 0.411 0.0626 0.4157 0.058 0.4197 0.0545 0.4226 0.0498 0.426 0.047 0.4307 0.0411 0.4348 0.0383 0.4377 0.0336 0.4417 0.0301 0.4452 0.0261 0.4499 0.0221 0.4527 0.0179 0.4562 0.0139 0.4609 0.0093 0.4643 0.0064 0.4678 0.0017 0.4719 -0.0017 0.4208 -0.0064 0.4192 -0.0098 0.4173 -0.0139 0.4145 -0.018 0.4133 -0.0226 0.411 -0.0261 0.4093 -0.0307 0.4064 -0.0337 0.4052 -0.0388 0.4029 -0.0423 0.4011 -0.0464 0.3988 -0.0504 0.3977 -0.0551 0.3954 -0.0585 0.393 -0.0632 0.3901 -0.0667 0.3896 -0.0707 0.3866 -0.0754 0.3855 -0.0794 0.3826 -0.0823 0.3809 -0.0875 0.3791 -0.0911 0.3774 -0.0956 0.3745 -0.0991 0.3727 -0.1044 0.371 -0.1072 0.3693 -0.1119 0.3664 -0.1154 0.364 -0.1205 0.3629 -0.1241 0.3611 -0.1281 0.3577 -0.1316 0.3554 -0.1356 0.3536 -0.1392 0.3495 -0.1432 0.3461 -0.146 0.3438 -0.1502 0.3402 -0.1542 0.338 -0.1577 0.3339 -0.1605 0.3304 -0.1652 0.3287 -0.1687 0.3247 -0.1722 0.3217 -0.1756 0.3182 -0.1798 0.316 -0.1837 0.313 -0.1873 0.3078 -0.1895 0.3061 -0.1948 0.3032 -0.1977 0.3003 -0.2017 0.2962 -0.2046 0.2933 -0.2093 0.2904 -0.2133 0.2876 -0.2157 0.2829 -0.2197 0.2805 -0.2232 0.2771 -0.2272 0.2748 -0.2307 0.2707 -0.2342 0.2678 -0.2383 0.2644 -0.2417 0.262 -0.2458 0.2574 -0.2545 0.2614 -0.2579 0.2568 -0.2609 0.2539 -0.2638 0.2493 -0.266 0.2452 -0.2696 0.2412 -0.2713 0.2376 -0.2748 0.2325 -0.2765 0.2295 -0.2806 0.2244 -0.2828 0.222 -0.2853 0.2162 -0.2875 0.2128 -0.291 0.2087 -0.2939 0.2046 -0.2962 0.2 -0.298 0.1971 -0.302 0.1919 -0.3043 0.189 -0.3073 0.1837 -0.309 0.1809 -0.3124 0.1756 -0.3154 0.1722 -0.3176 0.1675 -0.3194 0.1635 -0.3235 0.16 -0.3258 0.1554 -0.3281 0.1507 -0.3298 0.1478 -0.334 0.1432 -0.3368 0.1391 -0.3385 0.1345 -0.3397 0.131 -0.3426 0.1258 -0.3449 0.1223 -0.3461 0.1177 -0.3484 0.1142 -0.3507 0.1101 -0.353 0.1055 -0.3542 0.1009 -0.3554 0.0974 -0.3588 0.0927 -0.3606 0.0899 -0.3623 0.0841 -0.364 0.0811 -0.3664 0.076 -0.3687 0.073 -0.3698 0.0678 -0.3716 0.0644 -0.3739 0.0597 -0.3768 0.0562 -0.3774 0.051 -0.3797 0.0481 -0.3814 0.0429 -0.3838 0.0394 -0.3861 0.0348 -0.3866 0.0313 -0.3896 0.0267 -0.3913 0.0226 -0.3936 0.0186 -0.3947 0.0144 -0.3971 0.0099 -0.3989 0.007 -0.4 0.0011 -0.3443 -0.0006 -0.3438 -0.0029 -0.3426 -0.0052 -0.3408 -0.0075 -0.3403 -0.0087 -0.3397 -0.0116 -0.338 -0.0133 -0.3373 -0.0163 -0.3357 -0.0168 -0.335 -0.0197 -0.3345 -0.0214 -0.3333 -0.0244 -0.3316 -0.0255 -0.3322 -0.0278 -0.3298 -0.0302 -0.3287 -0.0324 -0.3276 -0.0336 -0.3269 -0.036 -0.3264 -0.0382 -0.3246 -0.0406 -0.3235 -0.0418 -0.3234 -0.0446 -0.3218 -0.0464 -0.3205 -0.0487 -0.3194 -0.0504 -0.3183 -0.0522 -0.3182 -0.055 -0.3166 -0.0569 -0.3153 -0.0585 -0.3148 -0.0614 -0.3136 -0.0627 -0.3125 -0.0655 -0.3084 -0.066 -0.3049 -0.0667 -0.3026 -0.0678 -0.2997 -0.0684 -0.2962 -0.069 -0.2933 -0.0707 -0.2904 -0.0708 -0.2882 -0.0719 -0.284 -0.0718 -0.2823 -0.0742 -0.2783 -0.0737 -0.2759 -0.0753 -0.273 -0.0754 -0.2702 -0.0771 -0.2678 -0.0771 -0.2638 -0.0782 -0.2608 -0.0789 -0.2586 -0.0794 -0.2556 -0.0806 -0.2527 -0.0817 -0.2493 -0.0823 -0.2475 -0.0835 -0.2429 -0.0841 -0.2412 -0.0852 -0.2377 -0.0852 -0.2347 -0.0864 -0.2325 -0.0869 -0.2296 -0.0887 -0.2266 -0.0887 -0.2238 -0.0904 -0.2203 -0.0905 -0.7843 -0.3298 0 -9.9725 1.8678 0 0.4446 0.3461 0.1896 0.1432 0.193 0.142 0.1959 0.1397 0.1995 0.138 0.2029 0.1368 0.2063 0.1345 0.2087 0.1327 0.2128 0.1316 0.2156 0.1293 0.2191 0.1275 0.2221 0.1264 0.2255 0.1241 0.2289 0.1223 0.2319 0.1205 0.2348 0.1189 0.2394 0.1177 0.2417 0.1153 0.2452 0.1131 0.2481 0.1113 0.2522 0.1101 0.2551 0.1084 0.2579 0.1061 0.2621 0.1043 0.2649 0.1032 0.2684 0.1003 0.2719 0.0991 0.2742 0.0968 0.2788 0.0957 0.2811 0.0933 0.2847 0.0916 0.2881 0.0893 0.291 0.0875 0.2904 0.0852 0.2916 0.0812 0.2939 0.0788 0.2951 0.0771 0.295 0.0725 0.298 0.0707 0.2991 0.0678 0.3003 0.0655 0.302 0.0621 0.3032 0.0603 0.3038 0.0568 0.3054 0.0539 0.3061 0.051 0.3084 0.0481 0.3107 0.0458 0.3113 0.0435 0.3113 0.04 0.3142 0.0377 0.3154 0.0342 0.3171 0.0318 0.3182 0.0296 0.3183 0.0267 0.3205 0.0226 0.3224 0.0214 0.3228 0.018 0.3252 0.0151 0.3264 0.0121 0.3275 0.0099 0.3287 0.007 0.3305 0.004 0.3315 0.0012 0.2864 -0.0012 0.2835 -0.0046 0.2823 -0.0081 0.2806 -0.011 0.2788 -0.014 0.2759 -0.0174 0.2754 -0.0202 0.2742 -0.0238 0.273 -0.0267 0.2701 -0.0295 0.2679 -0.0331 0.2672 -0.0365 0.2661 -0.0388 0.2632 -0.0424 0.262 -0.0452 0.2603 -0.0492 0.2597 -0.0516 0.2568 -0.0545 0.255 -0.0574 0.2545 -0.0615 0.2528 -0.0637 0.2498 -0.0673 0.2487 -0.0707 0.2481 -0.0736 0.247 -0.0765 0.244 -0.0795 0.2429 -0.0829 0.2412 -0.0858 0.24 -0.0892 0.2382 -0.0922 0.2359 -0.0945 0.2337 -0.098 0.4689 -0.2063 0.4557 -0.2139 0.4458 -0.2232 0.4353 -0.2313 0.4249 -0.24 0.4145 -0.2499 0.4046 -0.2579 0.3942 -0.2667 0.3844 -0.2753 0.3739 -0.2841 0.364 -0.2927 0.3536 -0.302 0.3444 -0.3102 0.3344 -0.3194 0.3241 -0.3281 0.3148 -0.338 0.3263 -0.3704 0.3171 -0.3774 0.3067 -0.3831 0.2962 -0.3896 0.2864 -0.3954 0.2759 -0.4005 0.2649 -0.4064 0.2551 -0.4133 0.2452 -0.418 0.2342 -0.4243 0.2249 -0.4296 0.2139 -0.4365 0.2041 -0.4423 0.1936 -0.4481 0.1838 -0.4545 0.1744 -0.4643 0.0829 -0.2295 0.0795 -0.2331 0.0776 -0.2359 0.0748 -0.2394 0.0725 -0.24 0.0695 -0.2423 0.0679 -0.2447 0.0637 -0.2475 0.0626 -0.2498 0.0597 -0.2516 0.0569 -0.2516 0.0539 -0.2562 0.0516 -0.258 0.0492 -0.2597 0.0458 -0.2615 0.0441 -0.2655 0.0417 -0.2666 0.0383 -0.2672 0.0359 -0.2702 0.0331 -0.2742 0.0307 -0.2748 0.0278 -0.2765 0.0255 -0.2794 0.0221 -0.2823 0.0208 -0.2846 0.0174 -0.2858 0.0145 -0.287 0.0122 -0.2904 0.0081 -0.2533 -31.4032 0 0 -8.3969 30.8919 0 -0.0058 -0.0382 -0.0429 -0.2638 -0.0458 -0.2614 -0.0475 -0.258 -0.051 -0.2574 -0.0516 -0.2539 -0.0551 -0.2516 -0.0568 -0.2487 -0.0591 -0.2469 -0.0615 -0.2446 -0.0638 -0.2418 -0.066 -0.2388 -0.0684 -0.2371 -0.0708 -0.2348 -0.0724 -0.2319 -0.0754 -0.2295 -0.0771 -0.2278 -0.0794 -0.2244 -0.0817 -0.222 -0.0841 -0.2203 -0.0864 -0.2185 -0.0881 -0.2151 -0.0904 -0.2122 -0.0928 -0.2098 -0.0956 -0.2087 -0.0968 -0.2058 -0.0992 -0.2029 -0.102 -0.2006 -0.1032 -0.1971 -0.2168 -0.3953 -0.2226 -0.3849 -0.2289 -0.3745 -0.2366 -0.367 -0.2434 -0.3565 -0.2499 -0.3484 -0.2562 -0.3391 -0.2643 -0.3304 -0.2702 -0.3212 -0.2777 -0.3124 -0.284 -0.3032 -0.2922 -0.2956 -0.2979 -0.2864 -0.3055 -0.2777 -0.3125 -0.2695 -0.3194 -0.2609 -0.3269 -0.2522 -0.3339 -0.2452 -0.3392 -0.2365 -0.3437 -0.229 -0.3502 -0.2197 -0.3553 -0.2121 -0.3606 -0.2035 -0.3663 -0.1959 -0.3716 -0.1861 -0.3774 -0.1792 -0.3832 -0.1704 -0.389 -0.1629 -0.3947 -0.1536 -0.4 -0.1461 -0.4064 -0.1374 -0.4127 -0.1298 -0.4174 -0.1212 -0.4232 -0.1136 -0.4266 -0.1067 -0.4302 -0.0985 -0.433 -0.0904 -0.4371 -0.0829 -0.4411 -0.0754 -0.4447 -0.0672 -0.4475 -0.0592 -0.4527 -0.0516 -0.4557 -0.0434 -0.4597 -0.036 -0.4631 -0.0278 -0.4679 -0.0197 -0.4707 -0.0122 -0.4765 -0.004 -0.32 0.0017 -0.3211 0.0041 -0.3194 0.0069 -0.3183 0.0099 -0.3159 0.0127 -0.3159 0.0151 -0.3142 0.0185 -0.3125 0.0209 -0.3107 0.0238 -0.3107 0.0266 -0.309 0.0296 -0.3067 0.0319 -0.306 0.0353 -0.3049 0.0371 -0.3038 0.0412 -0.302 0.0429 -0.2991 0.0458 -0.3003 0.0493 -0.2986 0.0516 -0.2962 0.0545 -0.2956 0.0573 -0.2945 0.0598 -0.2928 0.0631 -0.2916 0.065 -0.2892 0.0684 -0.2893 0.0707 -0.2881 0.0742 -0.2858 0.0765 -0.2852 0.08 -0.2846 0.0818 -0.2829 0.0852 -0.2812 0.0875 -0.2788 0.0899 -0.2777 0.0933 -0.2759 0.0945 -0.273 0.0968 -0.2696 0.0985 -0.2678 0.1003 -0.2655 0.1032 -0.2615 0.1038 -0.2597 0.1066 -0.2579 0.109 -0.2557 0.1107 -0.2516 0.1119 -0.2492 0.1148 -0.2481 0.1165 -0.2458 0.1189 -0.2412 0.1194 -0.2388 0.1229 -0.2377 0.124 -0.2348 0.127 -0.2318 0.1281 -0.2296 0.1304 -0.2272 0.1322 -0.2255 0.1351 -0.2215 0.135 -0.2185 0.1386 -0.2174 0.1408 -0.2157 0.1421 -0.2115 0.1437 -0.2093 0.1461 -0.2075 0.1484 -0.2053 0.1507 -0.4556 0.3409 -1.8985 0 0 -10.0409 0.8029 -0.3316 0.2336 -0.0956 0.2371 -0.0939 0.2388 -0.0934 0.2418 -0.0921 0.244 -0.091 0.2458 -0.0899 0.2493 -0.0899 0.2521 -0.0881 0.2534 -0.0869 0.2568 -0.0858 0.2591 -0.0852 0.262 -0.0841 0.2632 -0.0835 0.2661 -0.0817 0.269 -0.0812 0.2724 -0.08 0.2736 -0.0794 0.276 -0.0776 0.2788 -0.0771 0.2817 -0.076 0.2835 -0.0748 0.2858 -0.0742 0.2892 -0.0736 0.2922 -0.0719 0.2933 -0.0713 0.2957 -0.0701 0.2991 -0.0696 0.3014 -0.0678 0.3032 -0.0672 0.3061 -0.0667 0.3101 -0.0655 0.3125 -0.0638 0.3113 -0.062 0.3136 -0.0603 0.313 -0.058 0.3148 -0.0556 0.3136 -0.0539 0.3148 -0.0516 0.3148 -0.0505 0.3165 -0.0475 0.3159 -0.0458 0.3165 -0.0435 0.3171 -0.0423 0.3177 -0.0394 0.3171 -0.0377 0.3182 -0.0353 0.3189 -0.0342 0.32 -0.0313 0.3199 -0.0296 0.32 -0.0273 0.3206 -0.026 0.3217 -0.0232 0.3212 -0.0215 0.3217 -0.0191 0.3223 -0.018 0.3235 -0.0151 0.3235 -0.0133 0.3234 -0.011 0.3241 -0.0099 0.3252 -0.0063 0.3246 -0.0058 0.3258 -0.0029 0.3264 -0.0012 0.4214 0.0018 0.418 0.0057 0.4156 0.0093 0.4128 0.0128 0.411 0.0168 0.4075 0.0203 0.4046 0.0237 0.4029 0.0279 0.4 0.0313 0.3971 0.0353 0.3942 0.0389 0.3918 0.0423 0.3896 0.0464 0.3861 0.0498 0.3837 0.0534 0.3815 0.0573 0.3797 0.0615 0.3756 0.0649 0.3733 0.0684 0.371 0.0719 0.3681 0.0765 0.3652 0.0794 0.3629 0.0835 0.3594 0.087 0.3583 0.0916 0.3542 0.0945 0.3519 0.0979 0.3489 0.1026 0.3473 0.1061 0.3437 0.109 0.3409 0.1136 0.3385 0.1171 0.3368 0.1217 0.3328 0.1247 0.3298 0.1287 0.3275 0.1316 0.3252 0.1368 0.3212 0.1397 0.3188 0.1437 0.316 0.1479 0.313 0.1513 0.3101 0.1553 0.3067 0.1589 0.3043 0.1623 0.3021 0.1669 0.2979 0.1705 0.2951 0.1733 0.2921 0.1779 0.2905 0.1821 0.2863 0.1855 0.2841 0.189 0.28 0.193 0.2782 0.1971 0.2742 0.2 0.2719 0.204 0.2684 0.2076 0.2661 0.2127 0.262 0.2151 0.2597 0.2191 0.2568 0.2226 0.2533 0.2267 0.2505 0.2301 0.2475 0.2342 0.2458 0.2388 0.2411 0.2435 0.236 0.2458 0.2324 0.2493 0.2284 0.2527 0.2255 0.2562 0.2215 0.2597 0.2179 0.2632 0.2145 0.2667 0.2116 0.2707 0.2081 0.2736zm53.668 49.9945l-9.4293 0 0 -27.9766 -26.8027 0 0 27.9766 -9.4287 0 0 -59.0771 9.4287 0 0 22.4741 26.8027 0 0 -22.4741 9.4293 0 0 59.0771zm56.2349 0l-10.042 0 -5.5999 -15.9387 -23.5651 0 -5.6004 15.9387 -9.6762 0 21.5147 -59.0771 11.4542 0 21.5147 59.0771zm-18.6841 -24.3349l-8.7423 -24.4898 -8.7778 24.4898 17.5201 0zm61.9994 20.4417l-0.2644 0.1165 -0.4817 0.2151 -0.2423 0.1095 -0.2388 0.1073 -0.236 0.1072 -0.233 0.1061 -0.2296 0.1055 -0.2261 0.1044 -0.2231 0.1032 -0.2197 0.102 -0.2168 0.102 -0.2163 0.1009 -0.2249 0.1049 -0.2365 0.1061 -0.2435 0.1061 -0.251 0.1066 -0.2597 0.1073 -0.2666 0.1072 -0.2748 0.1078 -0.2829 0.1079 -0.2904 0.1084 -0.2986 0.1089 -0.3072 0.1096 -0.3142 0.1096 -0.3223 0.1101 -0.331 0.1107 -0.3386 0.1113 -0.3501 0.1119 -0.3043 0.0933 -0.3055 0.0916 -0.3084 0.0893 -0.3113 0.087 -0.3142 0.0858 -0.3171 0.084 -0.3212 0.0823 -0.3223 0.08 -0.3263 0.0789 -0.3293 0.0771 -0.3333 0.0753 -0.3351 0.0736 -0.338 0.0719 -0.342 0.0708 -0.3449 0.0684 -0.3484 0.0672 -0.3571 0.0649 -0.3617 0.0603 -0.3675 0.0568 -0.3699 0.0516 -0.375 0.0487 -0.378 0.0435 -0.3832 0.04 -0.3866 0.0348 -0.3913 0.0319 -0.3954 0.0266 -0.4 0.0232 -0.4023 0.0186 -0.4081 0.015 -0.4121 0.0099 -0.4163 0.0064 -0.4191 0.0017 -0.3965 -0.0012 -0.3948 -0.0058 -0.3918 -0.0087 -0.3896 -0.0121 -0.3878 -0.0157 -0.3855 -0.0191 -0.3843 -0.0226 -0.3815 -0.0267 -0.3791 -0.0295 -0.3768 -0.0331 -0.3756 -0.0371 -0.3722 -0.04 -0.371 -0.044 -0.3687 -0.047 -0.3669 -0.051 -0.3635 -0.0551 -0.3623 -0.0574 -0.3606 -0.0614 -0.3582 -0.0649 -0.3548 -0.069 -0.3542 -0.0719 -0.3519 -0.0754 -0.3495 -0.0794 -0.3461 -0.0829 -0.3449 -0.0858 -0.3426 -0.0898 -0.342 -0.0934 -0.3374 -0.0974 -0.3362 -0.0997 -0.3345 -0.1043 -0.3322 -0.1078 -0.3292 -0.1113 -0.3287 -0.1148 -0.327 -0.12 -0.324 -0.1235 -0.3206 -0.1281 -0.3188 -0.1316 -0.316 -0.1362 -0.3136 -0.1397 -0.3101 -0.1438 -0.3078 -0.1478 -0.3061 -0.1525 -0.3038 -0.1559 -0.2997 -0.1606 -0.2974 -0.164 -0.295 -0.1687 -0.2916 -0.1722 -0.2893 -0.1768 -0.2869 -0.1797 -0.2841 -0.1849 -0.2823 -0.1884 -0.2782 -0.1925 -0.276 -0.1965 -0.2736 -0.2012 -0.2707 -0.2046 -0.2672 -0.2087 -0.2655 -0.2121 -0.2621 -0.2168 -0.2602 -0.2203 -0.2568 -0.2255 -0.2539 -0.2284 -0.2516 -0.2331 -0.2487 -0.2365 -0.2447 -0.2406 -0.2388 -0.2388 -0.2353 -0.2446 -0.2331 -0.2481 -0.2295 -0.2528 -0.2255 -0.2562 -0.2226 -0.2609 -0.2192 -0.2637 -0.2156 -0.2684 -0.2122 -0.2719 -0.2092 -0.2759 -0.2058 -0.2806 -0.2018 -0.2841 -0.1988 -0.2875 -0.1954 -0.2921 -0.1924 -0.2957 -0.1884 -0.2991 -0.1855 -0.3032 -0.1815 -0.3072 -0.1791 -0.3107 -0.1751 -0.3154 -0.1715 -0.3182 -0.1687 -0.3235 -0.1653 -0.3264 -0.1611 -0.3304 -0.1588 -0.3333 -0.1548 -0.338 -0.1519 -0.3414 -0.1478 -0.3455 -0.1455 -0.349 -0.1415 -0.3536 -0.1385 -0.3565 -0.1345 -0.3606 -0.1322 -0.3652 -0.1275 -0.3693 -0.1235 -0.3733 -0.1188 -0.3762 -0.1154 -0.3797 -0.1101 -0.3838 -0.1067 -0.3866 -0.102 -0.3902 -0.0986 -0.3936 -0.0933 -0.3976 -0.0898 -0.4006 -0.0847 -0.4046 -0.0817 -0.407 -0.0765 -0.411 -0.0731 -0.415 -0.0678 -0.418 -0.0649 -0.4209 -0.0597 -0.4249 -0.0568 -0.4284 -0.0511 -0.4318 -0.0481 -0.4348 -0.0434 -0.4388 -0.0395 -0.4424 -0.0347 -0.4457 -0.0313 -0.4487 -0.0267 -0.4528 -0.0232 -0.4562 -0.018 -0.4591 -0.015 -0.4626 -0.0099 -0.4666 -0.0064 -0.4696 -0.0017 -0.4736 0.0017 -0.4487 0.0064 -0.4464 0.0093 -0.444 0.0145 -0.4411 0.0174 -0.4383 0.022 -0.4353 0.0255 -0.4325 0.0301 -0.4295 0.0337 -0.4261 0.0382 -0.4249 0.0418 -0.4209 0.0458 -0.4185 0.0498 -0.4151 0.0539 -0.4133 0.058 -0.4099 0.062 -0.4075 0.0655 -0.4035 0.0702 -0.4017 0.0742 -0.3982 0.0782 -0.396 0.0818 -0.3924 0.0863 -0.3901 0.0899 -0.3873 0.0951 -0.3843 0.0973 -0.3809 0.1026 -0.3791 0.1067 -0.3756 0.1107 -0.3734 0.1142 -0.3692 0.1189 -0.367 0.1229 -0.3652 0.1269 -0.3611 0.1299 -0.3571 0.1345 -0.3548 0.1379 -0.3507 0.1415 -0.3472 0.1443 -0.3438 0.149 -0.342 0.1525 -0.3368 0.1559 -0.3345 0.1588 -0.3304 0.1635 -0.3276 0.1664 -0.324 0.171 -0.3212 0.1739 -0.317 0.178 -0.3137 0.1814 -0.3113 0.1855 -0.3078 0.1878 -0.3026 0.1925 -0.3008 0.1959 -0.2968 0.1994 -0.2939 0.2035 -0.2899 0.2064 -0.2869 0.211 -0.2835 0.2139 -0.28 0.2174 -0.2759 0.222 -0.2731 0.2249 -0.2695 0.229 -0.2661 0.2319 -0.262 0.2359 -0.2597 0.2394 -0.2551 0.2429 -0.2522 0.2388 -0.2405 0.2418 -0.2371 0.2446 -0.2336 0.2481 -0.2308 0.251 -0.2255 0.2545 -0.2237 0.2574 -0.2192 0.2609 -0.2162 0.2631 -0.2116 0.2661 -0.2087 0.2696 -0.2046 0.273 -0.2017 0.2754 -0.1971 0.2788 -0.1942 0.2823 -0.1907 0.2852 -0.1867 0.2875 -0.1832 0.2911 -0.1797 0.2939 -0.1756 0.2973 -0.1722 0.2992 -0.1681 0.3031 -0.1652 0.3061 -0.1612 0.309 -0.1582 0.3119 -0.1537 0.3147 -0.1507 0.3183 -0.1466 0.3206 -0.1438 0.324 -0.1391 0.3264 -0.1357 0.3292 -0.1321 0.3328 -0.1287 0.3351 -0.1253 0.3373 -0.1205 0.3392 -0.1171 0.342 -0.1131 0.3443 -0.1084 0.3461 -0.1055 0.3478 -0.1003 0.3513 -0.0979 0.3525 -0.0922 0.3553 -0.0893 0.3565 -0.0852 0.36 -0.0811 0.3612 -0.0771 0.364 -0.0731 0.3658 -0.069 0.3681 -0.0655 0.3698 -0.0608 0.3722 -0.0574 0.3745 -0.0534 0.3768 -0.0492 0.3779 -0.0453 0.3815 -0.0417 0.3826 -0.0371 0.3855 -0.0342 0.3872 -0.029 0.389 -0.0261 0.3919 -0.0214 0.3936 -0.018 0.3953 -0.0133 0.3977 -0.0099 0.4 -0.0063 0.4029 -0.0018 0.295 0.0012 0.2957 0.0034 0.2945 0.0058 0.295 0.0082 0.2951 0.0098 0.295 0.0122 0.2945 0.0145 0.2957 0.0168 0.295 0.0191 0.2939 0.0215 0.2945 0.0232 0.2951 0.0255 0.2956 0.0284 0.2939 0.0301 0.2939 0.0325 0.2963 0.0342 0.2945 0.0377 0.2939 0.0388 0.2944 0.0417 0.2945 0.0435 0.2939 0.0458 0.2939 0.0481 0.2939 0.0499 0.2951 0.0527 0.2939 0.0551 0.2939 0.0568 0.2933 0.0586 0.2951 0.0614 0.2939 0.0638 0.2939 0.0661 0.2928 0.0678 0.2956 0.0701 0.2962 0.0742 0.298 0.0771 0.2997 0.08 0.302 0.0835 0.3038 0.087 0.3049 0.0904 0.3072 0.0939 0.3096 0.0968 0.3113 0.1003 0.313 0.1038 0.3142 0.1066 0.3165 0.1102 0.3188 0.1136 0.32 0.1171 0.3218 0.12 0.3246 0.1229 0.3258 0.1275 0.3275 0.1299 0.3293 0.1333 0.3321 0.1368 0.3328 0.1409 0.335 0.1426 0.3368 0.1466 0.3397 0.1502 0.3415 0.1536 0.342 0.1559 0.3443 0.16 0.3473 0.1629 0.3484 0.167 0.3501 0.1692 0.3519 0.1728 0.8689 0.4313 0 10.5632 -1.8428 0 -0.5519 -0.4568 -0.2892 -0.236 -0.2893 -0.2319 -0.2893 -0.2278 -0.2887 -0.2232 -0.2881 -0.2191 -0.2881 -0.2156 -0.2869 -0.2105 -0.2875 -0.2063 -0.2876 -0.2023 -0.2869 -0.1983 -0.2858 -0.1942 -0.2864 -0.1896 -0.2864 -0.186 -0.2852 -0.1815 -0.284 -0.1768 -0.2852 -0.1722 -0.2852 -0.1692 -0.2847 -0.1652 -0.2834 -0.16 -0.2835 -0.156 -0.284 -0.1524 -0.2829 -0.1484 -0.2823 -0.1438 -0.2818 -0.1385 -0.2834 -0.1363 -0.2824 -0.1321 -0.2811 -0.1276 -0.2806 -0.1229 -0.2811 -0.1194 -0.2806 -0.1153 -0.2788 -0.1102 -0.2812 -0.1067 -0.2823 -0.1037 -0.2835 -0.1003 -0.2846 -0.0974 -0.2858 -0.0933 -0.2875 -0.0899 -0.2881 -0.0869 -0.2893 -0.0835 -0.2904 -0.0794 -0.2928 -0.0771 -0.2933 -0.0731 -0.2945 -0.0695 -0.2956 -0.0661 -0.2974 -0.0632 -0.2985 -0.0597 -0.2986 -0.0562 -0.3014 -0.0522 -0.3032 -0.0499 -0.3032 -0.0458 -0.3049 -0.0423 -0.3067 -0.0394 -0.3072 -0.0359 -0.3096 -0.0325 -0.3095 -0.029 -0.3113 -0.0255 -0.313 -0.022 -0.3148 -0.0191 -0.3154 -0.0157 -0.3165 -0.0116 -0.3182 -0.0087 -0.32 -0.0052 -0.3212 -0.0017 -0.2608 0.0011 -0.2592 0.0041 -0.2573 0.0069 -0.2557 0.0093 -0.255 0.0122 -0.2522 0.0139 -0.2504 0.018 -0.2481 0.0191 -0.247 0.0226 -0.2452 0.0249 -0.2435 0.0278 -0.2411 0.0302 -0.24 0.033 -0.2377 0.0354 -0.2359 0.0383 -0.2342 0.0405 -0.2325 0.0435 -0.2307 0.0458 -0.229 0.0487 -0.2272 0.0504 -0.2255 0.0545 -0.2244 0.0557 -0.222 0.0591 -0.2197 0.0609 -0.2185 0.0643 -0.2168 0.0661 -0.2151 0.069 -0.2133 0.0719 -0.2116 0.0736 -0.2099 0.0771 -0.2087 0.0794 -0.2023 0.08 -0.411 0.1733 -0.4017 0.1826 -0.3965 0.1948 -0.3907 0.2058 -0.3855 0.2174 -0.3797 0.229 -0.3745 0.24 -0.3693 0.2521 -0.364 0.2644 -0.3588 0.2747 -0.3537 0.2882 -0.3478 0.2991 -0.3437 0.3113 -0.338 0.3234 -0.3327 0.3345 -0.3264 0.3461 -0.3096 0.3472 -0.3002 0.3577 -0.2922 0.3699 -0.2835 0.3814 -0.2753 0.393 -0.2667 0.4047 -0.2591 0.4167 -0.2499 0.4284 -0.2423 0.4412 -0.2342 0.4527 -0.2249 0.4649 -0.2162 0.4766 -0.2087 0.4892 -0.1994 0.5014 -0.1913 0.5131 -0.1832 0.5281 -0.0875 0.2649 -0.0847 0.2678 -0.0817 0.2719 -0.0794 0.2748 -0.0771 0.2771 -0.0736 0.2805 -0.0714 0.2818 -0.0684 0.2852 -0.0655 0.2881 -0.0626 0.291 -0.0603 0.2933 -0.0573 0.2968 -0.0545 0.2997 -0.0522 0.3015 -0.0493 0.3049 -0.0458 0.3072 -0.0435 0.3107 -0.0411 0.3131 -0.0377 0.3159 -0.0354 0.3188 -0.0324 0.3212 -0.029 0.3234 -0.0267 0.3282 -0.0237 0.3292 -0.0215 0.3333 -0.018 0.3357 -0.0156 0.3374 -0.0122 0.3414 -0.0104 0.3438 -0.007 0.346 -0.004 0.349 -0.0012 0.3525 0.0012 0.3681 0.0046 0.3652 0.0075 0.3617 0.0116 0.3577 0.0134 0.3548 0.0174 0.3513 0.0203 0.3472 0.0231 0.3443 0.0267 0.3409 0.029 0.3374 0.0325 0.3339 0.0359 0.3298 0.0383 0.327 0.0417 0.3229 0.0452 0.3194 0.0481 0.3165 0.051 0.3136 0.0539 0.3096 0.0569 0.3054 0.0602 0.3026 0.0627 0.2992 0.066 0.2956 0.069 0.2916 0.0725 0.2887 0.0753 0.2858 0.0777 0.2811 0.0812 0.2783 0.0846 0.2748 0.087 0.2718 0.0898 0.2673 0.0928 0.2643 0.0956 0.2597 0.2023 0.5229 0.2081 0.5078 0.2139 0.4939 0.2221 0.4817 0.2284 0.4684 0.2347 0.4551 0.2412 0.4423 0.2487 0.4295 0.2545 0.4168 0.2608 0.4029 0.2673 0.3913 0.2747 0.378 0.28 0.3652 0.287 0.3524 0.2933 0.3403 0.3003 0.3281 0.3211 0.3316 0.3287 0.3206 0.3351 0.3101 0.3414 0.2986 0.3478 0.2875 0.3542 0.2759 0.3606 0.2655 0.3681 0.2539 0.3739 0.2435 0.3803 0.2319 0.3872 0.2214 0.3942 0.2099 0.4012 0.2 0.4075 0.1884 0.4145 0.1779 0.4272 0.1687 0.211 0.0794 0.2151 0.0777 0.2156 0.0748 0.2174 0.073 0.2174 0.0702 0.2191 0.0672 0.2186 0.0655 0.2203 0.0615 0.2214 0.0609 0.2214 0.0573 0.2221 0.0545 0.2237 0.0522 0.2244 0.0504 0.2243 0.0464 0.2249 0.0447 0.2273 0.0423 0.2278 0.04 0.2272 0.0365 0.2284 0.0348 0.2296 0.0319 0.2307 0.0295 0.2307 0.0267 0.2313 0.0243 0.2336 0.0215 0.2342 0.0191 0.2342 0.0162 0.2348 0.0145 0.2377 0.0116 0.2359 0.0093 0.2377 0.0058 0.2388 0.0041 0.2394 0.0011 0.3339 -0.0017 0.331 -0.0052 0.3299 -0.0093 0.3287 -0.0122 0.3263 -0.0162 0.3258 -0.0197 0.3241 -0.0232 0.3234 -0.0273 0.3212 -0.0295 0.3194 -0.0342 0.3188 -0.0377 0.3177 -0.0412 0.3165 -0.0446 0.3142 -0.0481 0.3125 -0.0516 0.3118 -0.0562 0.3113 -0.0586 0.3084 -0.0626 0.3073 -0.0655 0.3066 -0.0701 0.3049 -0.0731 0.3038 -0.0765 0.302 -0.0806 0.3015 -0.084 0.2997 -0.087 0.2979 -0.091 0.2968 -0.0945 0.2963 -0.0985 0.2944 -0.1009 0.2922 -0.1055 0.2922 -0.109 0.2916 -0.1125 0.2886 -0.1153 0.2882 -0.12 0.2863 -0.1229 0.2864 -0.127 0.2846 -0.1298 0.2841 -0.1345 0.2823 -0.1368 0.2817 -0.1415 0.28 -0.1443 0.28 -0.1484 0.2777 -0.1513 0.2771 -0.1559 0.2759 -0.1589 0.2748 -0.1629 0.2742 -0.1663 0.273 -0.1705 0.2713 -0.1733 0.2707 -0.1768 0.269 -0.1809 0.269 -0.1849 0.2678 -0.1878 0.2661 -0.1919 0.2649 -0.1948 0.2643 -0.2 0.2632 -0.2017 0.2615 -0.2064 0.2608 -0.2104 0.2597 -0.2133 0.2591 -0.2174 0.258 -0.2215 0.2568 -0.2249 0.524 -0.4684 1.8243 0 0 10.4542 -0.8202 0.3594 -0.258 0.1137 -0.2556 0.113zm75.5201 3.8932l-9.4299 0 0 -46.0932 -14.4378 30.3853 -5.7268 0 -14.3202 -30.358 0 46.0659 -8.9701 0 0 -59.0771 11.9028 0 14.701 30.6397 14.2193 -30.6397 12.0617 0 0 59.0771zm51.9776 -3.8932l-0.2649 0.1165 -0.4812 0.2151 -0.2428 0.1095 -0.2389 0.1073 -0.2359 0.1072 -0.2325 0.1061 -0.2301 0.1055 -0.2261 0.1044 -0.2238 0.1032 -0.2197 0.102 -0.2168 0.102 -0.2162 0.1009 -0.2243 0.1043 -0.2365 0.1067 -0.2435 0.1061 -0.2504 0.1066 -0.2592 0.1073 -0.2672 0.1072 -0.2748 0.1078 -0.2829 0.1079 -0.2904 0.1084 -0.2991 0.1089 -0.3067 0.1096 -0.3142 0.1096 -0.3223 0.1101 -0.331 0.1107 -0.3385 0.1113 -0.3502 0.1119 -0.3043 0.0933 -0.3055 0.0916 -0.309 0.0893 -0.3107 0.087 -0.3136 0.0858 -0.3177 0.084 -0.3211 0.0823 -0.3223 0.08 -0.3258 0.0789 -0.3299 0.0771 -0.3327 0.0753 -0.3351 0.0736 -0.3385 0.0719 -0.3415 0.0708 -0.3455 0.0684 -0.3483 0.0672 -0.3571 0.0649 -0.3629 0.0603 -0.3664 0.0568 -0.3704 0.0516 -0.3745 0.0487 -0.3785 0.0435 -0.3832 0.04 -0.3867 0.0348 -0.3913 0.0319 -0.3953 0.0266 -0.3994 0.0232 -0.4029 0.0186 -0.4081 0.015 -0.4122 0.0099 -0.4162 0.0064 -0.4191 0.0017 -0.3965 -0.0012 -0.3948 -0.0058 -0.3924 -0.0087 -0.3896 -0.0121 -0.3878 -0.0157 -0.3855 -0.0191 -0.3843 -0.0226 -0.3809 -0.0267 -0.3791 -0.0295 -0.3774 -0.0331 -0.3756 -0.0371 -0.3722 -0.04 -0.3704 -0.044 -0.3693 -0.047 -0.3664 -0.051 -0.3634 -0.0551 -0.3623 -0.0574 -0.3606 -0.0614 -0.3583 -0.0649 -0.3547 -0.069 -0.3542 -0.0719 -0.3519 -0.0754 -0.3496 -0.0794 -0.346 -0.0829 -0.3449 -0.0858 -0.3426 -0.0898 -0.3415 -0.0934 -0.3374 -0.0974 -0.3362 -0.0997 -0.3345 -0.1043 -0.3321 -0.1078 -0.3293 -0.1113 -0.3293 -0.1148 -0.3263 -0.12 -0.3241 -0.1235 -0.3206 -0.1281 -0.3188 -0.1316 -0.3159 -0.1362 -0.3136 -0.1397 -0.3102 -0.1438 -0.3078 -0.1478 -0.3061 -0.1525 -0.3037 -0.1559 -0.2997 -0.1606 -0.298 -0.164 -0.2945 -0.1687 -0.2921 -0.1722 -0.2887 -0.1768 -0.287 -0.1797 -0.284 -0.1849 -0.2823 -0.1884 -0.2783 -0.1925 -0.2759 -0.1965 -0.2736 -0.2012 -0.2713 -0.2046 -0.2673 -0.2087 -0.2649 -0.2121 -0.262 -0.2168 -0.2603 -0.2203 -0.2568 -0.2255 -0.2545 -0.2284 -0.251 -0.2331 -0.2487 -0.2365 -0.2452 -0.2406 -0.2382 -0.2388 -0.236 -0.2446 -0.2324 -0.2481 -0.2296 -0.2528 -0.2261 -0.2562 -0.222 -0.2609 -0.2191 -0.2637 -0.2157 -0.2684 -0.2127 -0.2719 -0.2087 -0.2759 -0.2064 -0.2806 -0.2017 -0.2841 -0.1988 -0.2875 -0.1954 -0.2921 -0.1925 -0.2957 -0.1878 -0.2991 -0.1855 -0.3026 -0.182 -0.3078 -0.1791 -0.3107 -0.1751 -0.3154 -0.1716 -0.3182 -0.1687 -0.3235 -0.1652 -0.3258 -0.1611 -0.3304 -0.1589 -0.3339 -0.1548 -0.338 -0.1518 -0.3414 -0.1484 -0.3455 -0.145 -0.3484 -0.142 -0.3536 -0.138 -0.3571 -0.135 -0.3612 -0.1316 -0.3646 -0.1275 -0.3699 -0.1235 -0.3727 -0.1189 -0.3762 -0.1153 -0.3797 -0.1102 -0.3838 -0.1066 -0.3866 -0.102 -0.3902 -0.098 -0.3936 -0.0939 -0.3976 -0.0893 -0.4006 -0.0852 -0.4046 -0.0812 -0.407 -0.0765 -0.411 -0.073 -0.415 -0.0684 -0.418 -0.0644 -0.4209 -0.0603 -0.4249 -0.0562 -0.4284 -0.0516 -0.4318 -0.0475 -0.4348 -0.0435 -0.4394 -0.0394 -0.4418 -0.0348 -0.4457 -0.0313 -0.4487 -0.0267 -0.4528 -0.0226 -0.4562 -0.0185 -0.4591 -0.0145 -0.4626 -0.0099 -0.4666 -0.0069 -0.4696 -0.0012 -0.4736 0.0012 -0.4487 0.0063 -0.4464 0.0093 -0.444 0.0145 -0.4411 0.0174 -0.4383 0.022 -0.4353 0.0261 -0.4319 0.0296 -0.4301 0.0336 -0.4261 0.0383 -0.4249 0.0411 -0.4209 0.0464 -0.4185 0.0493 -0.4151 0.0545 -0.4133 0.0579 -0.4099 0.0621 -0.4075 0.0655 -0.4035 0.0701 -0.4017 0.0736 -0.3982 0.0789 -0.396 0.0817 -0.3924 0.0864 -0.3901 0.0898 -0.3873 0.0951 -0.3843 0.098 -0.3815 0.1026 -0.3791 0.1061 -0.375 0.1107 -0.3734 0.1148 -0.3698 0.1188 -0.3675 0.1229 -0.3641 0.1275 -0.3611 0.1299 -0.3571 0.1345 -0.3548 0.1373 -0.3507 0.1415 -0.3472 0.1449 -0.3438 0.1484 -0.342 0.1525 -0.3368 0.1559 -0.3345 0.1594 -0.3299 0.1629 -0.3275 0.1664 -0.3246 0.171 -0.3212 0.1739 -0.317 0.1774 -0.3137 0.1814 -0.3113 0.1855 -0.3078 0.1884 -0.3026 0.1919 -0.3008 0.196 -0.2968 0.2 -0.2939 0.2028 -0.2899 0.207 -0.2869 0.2104 -0.2835 0.2145 -0.28 0.2174 -0.2759 0.2214 -0.2731 0.225 -0.2695 0.2289 -0.2661 0.2319 -0.262 0.236 -0.2597 0.2394 -0.2551 0.2434 -0.2522 0.2383 -0.2405 0.2417 -0.2371 0.2447 -0.2336 0.2481 -0.2308 0.251 -0.2255 0.2545 -0.2237 0.2573 -0.2192 0.2603 -0.2162 0.2638 -0.2116 0.2661 -0.2087 0.2695 -0.2046 0.2731 -0.2017 0.2753 -0.1971 0.2788 -0.1942 0.2823 -0.1907 0.2853 -0.1867 0.2875 -0.1832 0.291 -0.1797 0.2939 -0.1756 0.2974 -0.1722 0.2991 -0.1681 0.3026 -0.1652 0.3061 -0.1612 0.309 -0.1582 0.3118 -0.1537 0.3142 -0.1507 0.3183 -0.1466 0.3211 -0.1438 0.3235 -0.1391 0.3264 -0.1357 0.3292 -0.1321 0.3334 -0.1287 0.335 -0.1253 0.3374 -0.1205 0.3391 -0.1171 0.3426 -0.1131 0.3444 -0.1084 0.346 -0.1055 0.3478 -0.1003 0.3513 -0.0979 0.3531 -0.0922 0.3547 -0.0893 0.3571 -0.0852 0.3594 -0.0811 0.3612 -0.0771 0.364 -0.0731 0.3658 -0.069 0.3681 -0.0655 0.3699 -0.0608 0.3727 -0.0574 0.3739 -0.0534 0.3768 -0.0492 0.3786 -0.0453 0.3808 -0.0417 0.3832 -0.0371 0.3849 -0.0342 0.3873 -0.029 0.3889 -0.0261 0.3919 -0.0214 0.3936 -0.018 0.3954 -0.0133 0.3976 -0.0099 0.4 -0.0063 0.4023 -0.0018 0.2957 0.0012 0.2956 0.0034 0.2945 0.0058 0.2951 0.0082 0.295 0.0098 0.2951 0.0122 0.2939 0.0145 0.2956 0.0168 0.2951 0.0191 0.2939 0.0215 0.2945 0.0232 0.2956 0.0255 0.2951 0.0284 0.2945 0.0301 0.2939 0.0325 0.2956 0.0342 0.2945 0.0377 0.2945 0.0388 0.2939 0.0417 0.2945 0.0435 0.2945 0.0458 0.2939 0.0481 0.2933 0.0499 0.2951 0.0527 0.2944 0.0551 0.2934 0.0568 0.2939 0.0586 0.2945 0.0614 0.2939 0.0638 0.2939 0.0661 0.2933 0.0678 0.2956 0.0701 0.2963 0.0742 0.2973 0.0771 0.2997 0.08 0.3021 0.0835 0.3037 0.0875 0.3055 0.0899 0.3067 0.0939 0.3101 0.0968 0.3107 0.1003 0.3131 0.1038 0.3142 0.1066 0.3165 0.1102 0.3188 0.1136 0.32 0.1171 0.3217 0.12 0.3247 0.1229 0.3257 0.1275 0.3281 0.1299 0.3293 0.1333 0.3316 0.1368 0.3333 0.1409 0.3351 0.1426 0.3362 0.1466 0.3403 0.1502 0.3408 0.1536 0.3426 0.1559 0.3438 0.16 0.3478 0.1629 0.3484 0.167 0.3496 0.1692 0.3524 0.1728 0.8684 0.4313 0 10.5632 -1.8428 0 -0.5513 -0.4568 -0.2893 -0.236 -0.2893 -0.2319 -0.2887 -0.2278 -0.2886 -0.2232 -0.2881 -0.2191 -0.2887 -0.2156 -0.287 -0.2105 -0.2875 -0.2063 -0.2875 -0.2023 -0.2864 -0.1983 -0.2864 -0.1942 -0.2863 -0.1896 -0.2858 -0.186 -0.2858 -0.1815 -0.2841 -0.1768 -0.2852 -0.1722 -0.2852 -0.1692 -0.284 -0.1652 -0.2841 -0.16 -0.2835 -0.156 -0.284 -0.1524 -0.2829 -0.1484 -0.2817 -0.1438 -0.2823 -0.1385 -0.2835 -0.1363 -0.2817 -0.1321 -0.2812 -0.1276 -0.2811 -0.1229 -0.2812 -0.1194 -0.2806 -0.1153 -0.2788 -0.1102 -0.2806 -0.1067 -0.2823 -0.1037 -0.284 -0.1003 -0.2847 -0.0974 -0.2857 -0.0933 -0.287 -0.0899 -0.2887 -0.0869 -0.2892 -0.0835 -0.2899 -0.0794 -0.2927 -0.0771 -0.2939 -0.0731 -0.294 -0.0695 -0.2962 -0.0661 -0.2974 -0.0632 -0.2985 -0.0597 -0.2985 -0.0562 -0.3015 -0.0522 -0.3026 -0.0499 -0.3037 -0.0458 -0.305 -0.0423 -0.306 -0.0394 -0.3079 -0.0359 -0.3095 -0.0325 -0.3096 -0.029 -0.3113 -0.0255 -0.313 -0.022 -0.3148 -0.0191 -0.3153 -0.0157 -0.3165 -0.0116 -0.3189 -0.0087 -0.32 -0.0052 -0.3205 -0.0017 -0.2609 0.0011 -0.2597 0.0041 -0.2574 0.0069 -0.255 0.0093 -0.2551 0.0122 -0.2522 0.0139 -0.2504 0.018 -0.2487 0.0191 -0.2469 0.0226 -0.2452 0.0249 -0.2429 0.0278 -0.2418 0.0302 -0.2394 0.033 -0.2382 0.0354 -0.2354 0.0383 -0.2342 0.0405 -0.2324 0.0435 -0.2308 0.0458 -0.2289 0.0487 -0.2273 0.0504 -0.2261 0.0545 -0.2237 0.0557 -0.222 0.0591 -0.2198 0.0609 -0.2185 0.0643 -0.2174 0.0661 -0.2145 0.069 -0.2133 0.0719 -0.2116 0.0736 -0.2093 0.0771 -0.2086 0.0794 -0.2029 0.08 -0.4105 0.1733 -0.4023 0.1826 -0.3965 0.1948 -0.3907 0.2058 -0.3855 0.2174 -0.3797 0.229 -0.3745 0.24 -0.3692 0.2521 -0.3641 0.2644 -0.3588 0.2747 -0.3536 0.2882 -0.3478 0.2991 -0.3438 0.3113 -0.338 0.3234 -0.3327 0.3345 -0.3264 0.3461 -0.3095 0.3472 -0.3003 0.3577 -0.2922 0.3699 -0.2834 0.3814 -0.276 0.3936 -0.2666 0.4041 -0.2586 0.4167 -0.2504 0.4284 -0.2423 0.4412 -0.2336 0.4527 -0.2255 0.4649 -0.2163 0.4766 -0.2086 0.4892 -0.1995 0.5014 -0.1913 0.5137 -0.1837 0.5281 -0.087 0.2643 -0.0846 0.2678 -0.0823 0.2719 -0.0794 0.2748 -0.0766 0.2771 -0.0742 0.28 -0.0707 0.2823 -0.0684 0.2852 -0.0655 0.2881 -0.0626 0.291 -0.0603 0.2933 -0.0574 0.2968 -0.0545 0.2997 -0.0516 0.3015 -0.0487 0.3043 -0.0463 0.3078 -0.0435 0.3107 -0.0412 0.3131 -0.0377 0.3159 -0.0347 0.3188 -0.0325 0.3212 -0.0296 0.3234 -0.0266 0.3282 -0.0238 0.3292 -0.0209 0.3333 -0.0185 0.3357 -0.0157 0.3374 -0.0121 0.3414 -0.0105 0.3438 -0.0064 0.346 -0.0046 0.349 -0.0011 0.3525 0.0011 0.3681 0.0046 0.3652 0.0082 0.3617 0.011 0.3577 0.0139 0.3548 0.0168 0.3513 0.0203 0.3472 0.0238 0.3443 0.026 0.3409 0.0296 0.3374 0.0319 0.3339 0.0359 0.3298 0.0389 0.327 0.0417 0.3229 0.0446 0.3194 0.0482 0.3165 0.051 0.3136 0.0539 0.3096 0.0568 0.306 0.0603 0.302 0.0626 0.2992 0.0661 0.2956 0.069 0.2916 0.0724 0.2887 0.0754 0.2858 0.0777 0.2811 0.0811 0.2783 0.0841 0.2748 0.0869 0.2718 0.0899 0.2673 0.0927 0.2643 0.0963 0.2597 0.2017 0.5229 0.2081 0.5078 0.2145 0.4939 0.2214 0.4817 0.2284 0.4684 0.2348 0.4551 0.2412 0.4423 0.2486 0.4295 0.2545 0.4163 0.2615 0.4034 0.2672 0.3913 0.2742 0.378 0.28 0.3652 0.2869 0.3524 0.294 0.3403 0.3002 0.3281 0.3212 0.3316 0.3287 0.3206 0.335 0.3101 0.3415 0.2986 0.3478 0.2875 0.3542 0.2759 0.3606 0.2655 0.3681 0.2539 0.3733 0.2435 0.3808 0.2319 0.3873 0.2214 0.3942 0.2099 0.4011 0.2 0.407 0.1884 0.415 0.1779 0.4267 0.1687 0.2116 0.0794 0.215 0.0777 0.2157 0.0748 0.2174 0.073 0.2173 0.0702 0.2192 0.0672 0.2185 0.0655 0.2203 0.0615 0.2214 0.0609 0.2215 0.0573 0.222 0.0545 0.2238 0.0522 0.2243 0.0504 0.2238 0.047 0.2255 0.0441 0.2272 0.0423 0.2272 0.04 0.2279 0.0365 0.2278 0.0348 0.2301 0.0319 0.2307 0.0295 0.2308 0.0267 0.2313 0.0243 0.2336 0.0215 0.2342 0.0191 0.2342 0.0162 0.2347 0.0145 0.2371 0.0116 0.2366 0.0093 0.2376 0.0058 0.2389 0.0041 0.2394 0.0011 0.3333 -0.0017 0.3316 -0.0052 0.3298 -0.0093 0.3287 -0.0122 0.3264 -0.0162 0.3258 -0.0197 0.3234 -0.0232 0.3241 -0.0273 0.3211 -0.0295 0.3194 -0.0342 0.3189 -0.0377 0.3176 -0.0412 0.316 -0.0446 0.3142 -0.0481 0.313 -0.0516 0.3119 -0.0562 0.3113 -0.0586 0.3084 -0.0626 0.3072 -0.0655 0.3067 -0.0701 0.3049 -0.0731 0.3037 -0.0765 0.3021 -0.0806 0.3014 -0.084 0.2991 -0.087 0.2986 -0.091 0.2962 -0.0945 0.2962 -0.0985 0.2945 -0.1009 0.2922 -0.1055 0.2916 -0.109 0.2915 -0.1125 0.2887 -0.1153 0.2881 -0.12 0.2876 -0.1229 0.2858 -0.127 0.2846 -0.1298 0.284 -0.1345 0.2823 -0.1368 0.2818 -0.1415 0.2805 -0.1443 0.2795 -0.1484 0.2776 -0.1513 0.2771 -0.1559 0.2765 -0.1589 0.2748 -0.1629 0.2736 -0.1663 0.2731 -0.1705 0.2718 -0.1733 0.2708 -0.1768 0.2689 -0.1809 0.269 -0.1849 0.2678 -0.1878 0.2655 -0.1919 0.2655 -0.1948 0.2644 -0.2 0.2631 -0.2017 0.2615 -0.2064 0.2609 -0.2104 0.2597 -0.2133 0.2591 -0.2174 0.2579 -0.2215 0.2568 -0.2249 0.5241 -0.4684 1.8237 0 0 10.4542 -0.8197 0.3594 -0.2585 0.1137 -0.2551 0.113z"/>
   <path id="_133134304" class="fil4 str1" d="M129.071 127.911c27.8624,-27.8583 40.52,-61.255 30.8217,-78.4812 8.7024,15.6766 -1.5918,44.6323 -25.2781,68.3151 -26.1505,26.1471 -58.7229,35.9752 -72.7561,21.9432 -14.0304,-14.0309 -4.204,-46.6086 21.9466,-72.7522 23.6845,-23.6903 52.6431,-33.9746 68.3128,-25.2787 -17.225,-9.7011 -50.6223,2.9605 -78.4766,30.8195 -30.489,30.4895 -42.7976,67.6143 -27.4879,82.9164 15.3091,15.3132 52.4362,3.004 82.9176,-27.4821z"/>
   <path id="_133134232" class="fil3 str2" d="M101.342 139.354c39.3983,0 71.9603,-14.6599 77.2842,-33.7034 -4.9297,17.2378 -32.6808,30.4362 -66.1795,30.4362 -36.9793,0 -66.9604,-16.0836 -66.9604,-35.9335 0,-19.844 29.9811,-35.927 66.9604,-35.927 33.4987,0 61.2498,13.1996 66.1795,30.4362 -5.3239,-19.0453 -37.8859,-33.7022 -77.2842,-33.7022 -43.1129,0 -78.0678,17.5467 -78.0678,39.193 -0.0035,21.651 34.9549,39.2007 78.0678,39.2007z"/>
   <path id="_133134160" class="fil5 str2" d="M73.6419 127.837c27.8537,27.8584 61.251,40.5165 78.476,30.8171 -15.6697,8.6966 -44.6283,-1.5866 -68.3128,-25.277 -26.1506,-26.1476 -35.977,-58.7241 -21.9466,-72.7585 14.0332,-14.0262 46.6102,-4.2045 72.7561,21.9403 23.6863,23.6921 33.9805,52.6495 25.2781,68.3192 9.6983,-17.2343 -2.9593,-50.6177 -30.8217,-78.4795 -30.4814,-30.4815 -67.6067,-42.7941 -82.913,-27.4798 -15.3091,15.2987 -3.0033,52.4217 27.4839,82.9182z"/>
  </g>
 </g>
</svg>
